<svg xmlns="http://www.w3.org/2000/svg" width="259.183" height="344.942" viewBox="0 0 259.183 344.942"><defs><style>.a{fill:#bdbdbd;}.b{fill:#fff;}.c{fill:#211715;}.d{fill:#7a7473;}.e{fill:#3f88c9;}</style></defs><path class="a" d="M42.987,326.116c-6.667-2-20.846-7.111-26.079-10.12-7.821-4.5-13.935-12.578-14.47-21.583-.346-5.808,1.1-16.432,2.518-22.074,3.18-12.636,12.568-41.508,16.291-51.081,6.679-17.174,9.774-26.776,16.5-32.067,8.966-7.056,32.961-15.828,48.233-21.99a56.006,56.006,0,0,1,8.712-6.829c4.861,20.813,13.483,43.275,20.32,63.521,5.2,15.389,9.246,25.606,15.368,40.787q6.888-20.392,13.774-40.787c6.837-20.246,15.46-42.708,20.317-63.523a55.92,55.92,0,0,1,8.718,6.837c15.275,6.161,39.258,14.93,48.222,21.984,6.723,5.291,9.818,14.893,16.5,32.067,3.723,9.573,13.111,38.445,16.291,51.081,1.419,5.642,2.864,16.266,2.518,22.074-.535,9-6.649,17.086-14.47,21.583-5.233,3.009-19.412,8.12-26.079,10.12Z"/><path class="b" d="M181.052,85.444a7.667,7.667,0,0,1,6.137-1.8A7.247,7.247,0,0,1,192.4,87.11a10.234,10.234,0,0,1,1.072,4.12A30.682,30.682,0,0,1,190.34,107.5a19.5,19.5,0,0,1-5.043,6.62,12.934,12.934,0,0,1-6.014,2.71l-1.029.16c-.494,1.846-1.048,3.4-1.32,4.228-1.735,4.709-11.371,20.9-23.545,27.032a25.686,25.686,0,0,0,1.341,8.961c2.471,6.12,15.821,13.82,16.741,14.222,0,0,1.405,22.422-41.854,22.422s-41.928-22.422-41.928-22.422c.92-.4,12.173-7.03,14.653-13.15,1.318-3.25,1.369-7.45,1.346-11.291a47.418,47.418,0,0,1-11.9-10.447,52.179,52.179,0,0,1-9.946-19.413l-1.96-.3a12.934,12.934,0,0,1-6.014-2.71,19.5,19.5,0,0,1-5.043-6.62A30.692,30.692,0,0,1,65.691,91.23a10.234,10.234,0,0,1,1.072-4.12,7.247,7.247,0,0,1,5.208-3.462,7.667,7.667,0,0,1,6.137,1.8S67.4,39.777,127.839,39.777,181.052,85.444,181.052,85.444Z"/><path class="b" d="M132.115,172.429l-7.235.015-30.2-12.123c4.858,20.827,13.49,43.309,20.332,63.572,5.2,15.389,9.246,25.606,15.368,40.788q6.888-20.394,13.774-40.788c6.842-20.263,15.474-42.745,20.332-63.572l-30.924,12.1Z"/><path class="c" d="M85.461,164.839c-7.647,3.084-15.352,6.025-22.97,9.182-7.3,3.024-14.681,6.1-21.5,10.118a32.633,32.633,0,0,0-6.927,5.142,32.3,32.3,0,0,0-5.128,7.226c-4.047,7.491-6.754,15.734-9.826,23.651C14.255,232.673,10.27,245.586,6.4,258.432A158.519,158.519,0,0,0,1.586,276.8a108.537,108.537,0,0,0-1.5,12.593,30.431,30.431,0,0,0,1.244,11.67,32.053,32.053,0,0,0,16.059,17.9,161.417,161.417,0,0,0,20.7,8.105c1.417.473,2.839.932,4.27,1.364,2.964.893,4.23-3.738,1.276-4.629a194.482,194.482,0,0,1-19.787-7.148c-6.538-2.774-12.383-6.573-16.033-12.87A21.858,21.858,0,0,1,4.791,293.14a73.658,73.658,0,0,1,.828-11.256,127.511,127.511,0,0,1,4.329-18.561c3.822-13,7.932-25.973,12.59-38.7,2.62-7.161,5.286-14.389,8.417-21.344a48.583,48.583,0,0,1,4.423-8.1,20.768,20.768,0,0,1,2.329-2.753q.618-.614,1.286-1.173c.118-.1.238-.2.358-.292.307-.246-.26.194.055-.043q.428-.321.867-.629c5.736-4.02,12.352-6.865,18.752-9.633,7.491-3.24,15.106-6.184,22.694-9.186q2.513-.993,5.018-2a2.477,2.477,0,0,0,1.677-2.953,2.417,2.417,0,0,0-2.953-1.676Z"/><path class="c" d="M172.415,169.468c7.407,2.987,14.868,5.839,22.252,8.885a171.572,171.572,0,0,1,20.57,9.64c1.278.738,2.536,1.514,3.742,2.366a17.067,17.067,0,0,1,2.548,2.149,26.123,26.123,0,0,1,4.543,6.421c3.852,7.131,6.417,14.97,9.341,22.5,4.7,12.112,8.564,24.6,12.339,37.029a181.331,181.331,0,0,1,4.846,17.759,100.284,100.284,0,0,1,1.568,11.565,30.7,30.7,0,0,1-.577,10.759c-2.04,7.246-7.712,13.047-14.353,16.327a154.328,154.328,0,0,1-19.583,7.614c-1.369.456-2.742.9-4.124,1.315-2.95.889-1.693,5.523,1.276,4.629a203.281,203.281,0,0,0,20.655-7.515,43.886,43.886,0,0,0,8.689-4.587,33.339,33.339,0,0,0,8.96-9.479A26.893,26.893,0,0,0,259.1,294.6a60.794,60.794,0,0,0-.607-11.475,125.7,125.7,0,0,0-4.323-19.921c-3.9-13.4-8.133-26.755-12.928-39.86-2.745-7.5-5.567-15.051-8.835-22.342-2.508-5.594-5.585-10.843-10.615-14.508-5.764-4.2-12.562-7.089-19.07-9.908-7.874-3.412-15.871-6.525-23.85-9.68q-2.593-1.026-5.182-2.067a2.417,2.417,0,0,0-2.953,1.676,2.46,2.46,0,0,0,1.677,2.953Z"/><path class="d" d="M190.019,48.772q-.444-1.556-.992-3.093c-3.411-9.536-10.279-21.283-19.835-25.336l-8.275-6.28c-3.452-3.855-10.894-7.849-16.917-9.5a54.242,54.242,0,0,0-18.685-2.026c-15.56,1.134-28.786,6.95-39.082,18.748l-6.081,7.963C69.728,40.539,63.913,57.068,69.438,81.874l.53,2.381a7.128,7.128,0,0,1,2-.607,7.667,7.667,0,0,1,6.137,1.8L86.239,79.4c4.824-2.614,6.75-5.85,9.733-11.89,2.156-4.365,3.439-9.466,7.127-12.572,2.777-2.338,6.483-3.131,10.058-3.508a71.039,71.039,0,0,1,18.592.51c6.474,1.1,13.46-1.675,20.7.114,8.186,1.76,13.218,6.756,17.335,13.17a40.7,40.7,0,0,1,3.893,7.836,41.3,41.3,0,0,1,1.478,4.892c.388,1.646.626,3.254.878,4.952a3.888,3.888,0,0,0,1.614,2.516,4,4,0,0,0,3.406.027,7.667,7.667,0,0,1,6.137-1.8,7.453,7.453,0,0,1,1.479.38A58.56,58.56,0,0,0,190.019,48.772Z"/><path class="c" d="M151.81,54.365a21.974,21.974,0,0,1,9.53,4.551,33.73,33.73,0,0,1,6.979,8.5A38.943,38.943,0,0,1,173.251,80.6c.4,2.219.488,4.427,2.19,6.118a5.92,5.92,0,0,0,6.249,1.043,2.464,2.464,0,0,0,1.676-2.952,2.42,2.42,0,0,0-2.952-1.677c-.434.159-1.134.482-1.579.192-.56-.364-.538-1.4-.626-1.976a46.345,46.345,0,0,0-1.472-6.725,44.2,44.2,0,0,0-5.982-12.256c-4.349-6.23-10.133-10.949-17.669-12.628-3.009-.67-4.294,3.957-1.276,4.629Z"/><path class="c" d="M132.387,49.622a64.985,64.985,0,0,0-12.673-.962,45.158,45.158,0,0,0-12.332,1.413,16,16,0,0,0-9.427,7.43c-2.019,3.449-3.158,7.331-5.124,10.815-2.154,3.817-4.971,7.374-8.943,9.393-2.754,1.4-.328,5.542,2.423,4.144,7.273-3.7,10.907-11.185,14-18.3,1.443-3.318,3.11-6.519,6.5-8.158,3.335-1.611,7.381-1.756,11.016-1.888a60.952,60.952,0,0,1,13.277.745,2.466,2.466,0,0,0,2.952-1.676,2.422,2.422,0,0,0-1.676-2.953Z"/><path class="c" d="M167.981,22.415c7.522,3.268,12.544,10.518,16.069,17.642a55.6,55.6,0,0,1,2.991,41.4c-.957,2.945,3.676,4.206,4.628,1.276a60.056,60.056,0,0,0-9.8-55.12A30.691,30.691,0,0,0,170.4,18.27a2.478,2.478,0,0,0-3.283.861,2.417,2.417,0,0,0,.861,3.284Z"/><path class="c" d="M78.455,27.55A50.616,50.616,0,0,0,68.163,44.338a58.14,58.14,0,0,0-3.194,22.389,90.924,90.924,0,0,0,2.155,15.785c.664,3.016,5.293,1.74,4.629-1.276-3.124-14.173-3.224-29.6,4.279-42.44a44.714,44.714,0,0,1,5.817-7.852c2.086-2.273-1.3-5.676-3.394-3.394Z"/><path class="c" d="M162.614,12.366c-3.7-4.04-8.915-6.742-13.935-8.747a53.992,53.992,0,0,0-18.6-3.605,60.968,60.968,0,0,0-31.712,8.05A56.745,56.745,0,0,0,84.536,19.587c-2.032,2.312,1.35,5.72,3.394,3.394A51.722,51.722,0,0,1,112.023,7.338a55.387,55.387,0,0,1,32.78-.031c5.169,1.666,10.7,4.395,14.417,8.453,2.09,2.284,5.477-1.117,3.394-3.394Z"/><path class="c" d="M147.073,51.8c-1.525-4.8-5.625-8.37-10.118-10.383a28.385,28.385,0,0,0-16.436-2.074,2.419,2.419,0,0,0-1.676,2.952,2.456,2.456,0,0,0,2.952,1.676,22.759,22.759,0,0,1,12.737,1.591c3.3,1.449,6.773,3.927,7.912,7.514.933,2.933,5.568,1.679,4.629-1.276Z"/><path class="c" d="M176.8,111.116a25.842,25.842,0,0,1-1.238,6.545c-.244.815-.513,1.621-.783,2.428-.073.218-.153.434-.226.652-.213.636.118-.236-.037.1a54.172,54.172,0,0,1-3.391,6.209,60.827,60.827,0,0,1-13.665,15.754,25.9,25.9,0,0,1-10.036,5.066c-3.009.693-1.735,5.322,1.276,4.629,7.628-1.756,14.027-7.22,19.077-12.962a66.648,66.648,0,0,0,10.7-15.858,33.729,33.729,0,0,0,3.125-12.566c.1-3.09-4.7-3.086-4.8,0Z"/><path class="c" d="M77.871,110.4c2.791,16.1,11.508,31.867,26.406,39.666a36.043,36.043,0,0,0,13.1,3.938,2.416,2.416,0,0,0,2.4-2.4,2.454,2.454,0,0,0-2.4-2.4c-15.368-1.6-27.329-15.408-32.136-29.255a68.825,68.825,0,0,1-2.74-10.825,2.42,2.42,0,0,0-2.952-1.676,2.455,2.455,0,0,0-1.677,2.952Z"/><path class="c" d="M182.749,87.141a5.205,5.205,0,0,1,7.2.6c1.044,1.312,1.134,3.207,1.2,4.808a27.321,27.321,0,0,1-.322,5.714c-1.149,6.741-4.68,14.954-12.187,16.252a2.42,2.42,0,0,0-1.676,2.952,2.454,2.454,0,0,0,2.952,1.676c7.887-1.363,12.559-8.831,14.687-15.955a32.5,32.5,0,0,0,1.31-11.3c-.246-3.828-1.4-7.426-4.93-9.418a10.176,10.176,0,0,0-11.633,1.277,2.42,2.42,0,0,0,0,3.394,2.45,2.45,0,0,0,3.394,0Z"/><path class="c" d="M79.805,83.747a10.137,10.137,0,0,0-10.242-1.92c-3.763,1.483-5.694,4.648-6.178,8.555A31.671,31.671,0,0,0,68.773,112.1a16.63,16.63,0,0,0,10.466,7.042,2.47,2.47,0,0,0,2.952-1.677,2.42,2.42,0,0,0-1.676-2.952c-7.506-1.3-11.038-9.512-12.187-16.252A27.162,27.162,0,0,1,68,92.766c.056-1.614.118-3.528,1.11-4.885a5.175,5.175,0,0,1,7.3-.74,2.464,2.464,0,0,0,3.394,0,2.42,2.42,0,0,0,0-3.394Z"/><path class="c" d="M150.989,148.271c.071,3.9.293,8.261,2.458,11.642a27.266,27.266,0,0,0,5.837,6.165,74.9,74.9,0,0,0,7.038,5.086,32.4,32.4,0,0,0,3.937,2.337,2.472,2.472,0,0,0,3.284-.861,2.418,2.418,0,0,0-.861-3.283,30.451,30.451,0,0,1-3.554-2.093,68.826,68.826,0,0,1-6.006-4.22,41.256,41.256,0,0,1-3.166-2.787,20.277,20.277,0,0,1-2.109-2.387,10.973,10.973,0,0,1-.884-1.506c.268.556-.158-.438-.184-.515-.168-.5-.306-1.007-.424-1.519a29.519,29.519,0,0,1-.566-6.059c-.056-3.085-4.856-3.095-4.8,0Z"/><path class="c" d="M88.9,173.5a27.527,27.527,0,0,0,3.79-2.318,56.3,56.3,0,0,0,6.5-5.033,21.047,21.047,0,0,0,5.029-6.226c1.7-3.589,1.849-7.721,1.868-11.624.014-3.089-4.785-3.093-4.8,0a42.224,42.224,0,0,1-.276,5.5,14.966,14.966,0,0,1-1.153,4.138,19.148,19.148,0,0,1-4.506,5.219,48.718,48.718,0,0,1-5.488,4.151,25.948,25.948,0,0,1-3.392,2.052,2.417,2.417,0,0,0-.861,3.283,2.456,2.456,0,0,0,3.284.861Z"/><path class="e" d="M116.8,228.925c2.067-16.938,4.911-37.709,4.911-38.3a13.018,13.018,0,0,0-.508-3.116c-.118-.474-.237-.932-.338-1.406-.636-2.719-1.038-4.6-1.617-7.608.834-.868,1.659-1.74,2.452-2.61,1.36-1.494,2.467-2.613,3.3-3.439,3.2-.006,5.693-.014,9.136-.027.839.834,1.953,1.959,3.325,3.466.968,1.061,1.982,2.125,3,3.182-.5,2.006-.956,4.038-1.717,6.375a19.006,19.006,0,0,0-1.219,5.522c-.017.965,2.744,19.19,5.352,36.635Z"/><path class="c" d="M122.429,192.879c4.878,0,9.756-.107,14.634-.109a2.4,2.4,0,0,0,0-4.8c-4.878,0-9.756.108-14.634.109a2.4,2.4,0,0,0,0,4.8Z"/><path class="c" d="M117.176,180.388c.406,2.048.851,4.087,1.319,6.123a15.626,15.626,0,0,1,.8,4.277c-.087,1.456-.363,2.923-.552,4.368-.876,6.7-1.765,13.4-2.627,20.1q-.879,6.831-1.719,13.666a2.414,2.414,0,0,0,2.4,2.4,2.459,2.459,0,0,0,2.4-2.4c.972-7.956,2-15.9,3.043-23.85.615-4.692,1.463-9.416,1.839-14.136a14.726,14.726,0,0,0-.682-4.54c-.587-2.417-1.11-4.848-1.593-7.287a2.424,2.424,0,0,0-2.952-1.677,2.451,2.451,0,0,0-1.677,2.953Z"/><path class="c" d="M133.559,170.026q-4.34.007-8.679.018a2.4,2.4,0,1,0,0,4.8q4.339-.007,8.679-.018a2.4,2.4,0,1,0,0-4.8Z"/><path class="c" d="M145.2,226.959q-1.7-11.4-3.407-22.79-.63-4.24-1.244-8.484-.207-1.446-.406-2.894c-.067-.48.057.451-.021-.155-.02-.151-.04-.3-.059-.451-.032-.25-.069-.5-.091-.752a8.911,8.911,0,0,1,.395-3.085c.569-2.132,1.313-4.208,1.852-6.351.755-3-3.873-4.275-4.628-1.276-.839,3.331-2.608,6.9-2.45,10.384.065,1.45.363,2.913.565,4.347.884,6.281,1.837,12.551,2.775,18.824q1.046,6.979,2.091,13.959a2.416,2.416,0,0,0,2.952,1.676,2.46,2.46,0,0,0,1.676-2.952Z"/><path class="a" d="M128.982,268.814q7.585-22.461,15.169-44.921c6.842-20.263,15.474-42.745,20.332-63.572,6.211,3.755,14.906,12.058,18.059,18.339a1.308,1.308,0,0,1,.2.885c-.088.343-.427.55-.738.721l-8.4,4.631c3.157,2.856,6.379,5.823,9.322,8.916a2.62,2.62,0,0,1,.764,1.654,2.958,2.958,0,0,1-.428,1.466C172.356,217.525,159.294,239.8,147.22,260Z"/><path class="a" d="M114.068,261.728c-12.784-20.585-27.264-44.2-38.177-64.8a2.958,2.958,0,0,1-.428-1.466,2.62,2.62,0,0,1,.764-1.654c2.943-3.093,6.165-6.06,9.322-8.916l-8.4-4.631c-.311-.171-.65-.378-.738-.721a1.308,1.308,0,0,1,.2-.885c3.153-6.281,11.848-14.584,18.059-18.339,4.858,20.827,13.49,43.309,20.332,63.572,5.056,14.973,9.026,25.051,14.877,39.569Z"/><path class="c" d="M131.3,269.452Q138.8,247.228,146.306,225c4.591-13.594,9.557-27.062,13.923-40.732,2.457-7.692,4.725-15.449,6.568-23.312.7-3-3.923-4.288-4.628-1.277-3.307,14.106-7.942,27.863-12.69,41.537q-7.265,20.919-14.348,41.9l-8.463,25.062c-.991,2.933,3.644,4.191,4.628,1.276Z"/><path class="c" d="M92.363,160.959c3.342,14.257,8.04,28.158,12.843,41.977,4.617,13.284,9.027,26.656,13.976,39.82,2.69,7.156,5.533,14.253,8.39,21.344a2.476,2.476,0,0,0,2.952,1.676,2.417,2.417,0,0,0,1.676-2.953c-5.148-12.776-10.139-25.6-14.565-38.648-4.66-13.737-9.662-27.361-14.076-41.18-2.456-7.692-4.724-15.449-6.568-23.313-.7-3.006-5.333-1.733-4.628,1.277Z"/><path class="b" d="M147.676,186.756a102.277,102.277,0,0,0,15.816-25.041c-1.962-3.784-3.281-6.236-6.618-9.3-3.816,5.13-12.529,11.537-22.972,15.738a5.923,5.923,0,0,0-2.03,1.148c-.25.465.236.874.465,1.241.359.574,2.123,2.05,5.125,5.345C140.868,179.621,144.857,183.388,147.676,186.756Z"/><path class="b" d="M111.484,186.756a102.277,102.277,0,0,1-15.816-25.041c1.962-3.784,3.281-6.236,6.618-9.3,3.816,5.13,12.529,11.537,22.972,15.738a5.923,5.923,0,0,1,2.03,1.148c.25.465-.236.874-.465,1.241-.359.574-2.123,2.05-5.125,5.345C118.292,179.621,114.3,183.388,111.484,186.756Z"/><path class="c" d="M149.373,188.453a108.425,108.425,0,0,0,12.76-18.579q1.317-2.466,2.515-4.991c.449-.942,1.244-2.119,1.244-3.168a6.541,6.541,0,0,0-1.149-2.78,30.842,30.842,0,0,0-6.172-8.221,2.446,2.446,0,0,0-3.769.486,30.26,30.26,0,0,1-2.755,2.986,42.486,42.486,0,0,1-3.676,3.129,66.031,66.031,0,0,1-10.354,6.362c-1.934.967-3.936,1.75-5.9,2.647-2,.913-3.523,2.754-2.188,4.964a12.508,12.508,0,0,0,2.007,2.327c1.248,1.237,2.475,2.491,3.664,3.785,3.418,3.72,7.118,7.191,10.378,11.053a2.42,2.42,0,0,0,3.394,0,2.45,2.45,0,0,0,0-3.394c-3.011-3.567-6.417-6.774-9.588-10.194-1.342-1.446-2.682-2.887-4.082-4.276-.409-.406-.812-.818-1.223-1.222-.151-.148-.529-.673-.025.027-.061-.084-.38-.645-.339-.462v1.276l.07-.273-.617,1.059c-.252.295.091-.076.26-.171.232-.129.469-.251.711-.36.74-.335,1.5-.619,2.251-.942q2.151-.93,4.238-2a69.279,69.279,0,0,0,7.406-4.376,43.534,43.534,0,0,0,10.511-9.525l-3.769.485a30.766,30.766,0,0,1,6.242,8.818V160.5a108.6,108.6,0,0,1-15.44,24.556,2.467,2.467,0,0,0,0,3.394A2.421,2.421,0,0,0,149.373,188.453Z"/><path class="c" d="M113.181,185.059A108.6,108.6,0,0,1,97.741,160.5v2.423a30.78,30.78,0,0,1,6.242-8.818l-3.769-.485a43.594,43.594,0,0,0,10.511,9.525,68.813,68.813,0,0,0,7.211,4.276q2.08,1.071,4.226,2.007c.745.325,1.5.621,2.247.946.257.112.513.224.76.357.165.088.717.606.422.26l-.617-1.059.07.273v-1.276c.041-.183-.278.378-.339.462.5-.7.126-.175-.025-.027-.411.4-.814.816-1.223,1.222-1.4,1.389-2.74,2.83-4.082,4.276-3.171,3.42-6.577,6.627-9.588,10.194a2.464,2.464,0,0,0,0,3.394,2.42,2.42,0,0,0,3.394,0c2.861-3.389,6.08-6.452,9.112-9.684,1.375-1.465,2.722-2.951,4.143-4.373a23.828,23.828,0,0,0,2.357-2.5c1.218-1.633,1.306-3.619-.507-4.878-1.642-1.139-3.738-1.713-5.544-2.562a68.929,68.929,0,0,1-10.721-6.233,37.008,37.008,0,0,1-7.663-7.019,2.446,2.446,0,0,0-3.769-.486,30.55,30.55,0,0,0-6.083,8.054,7.013,7.013,0,0,0-1.238,2.947,8.679,8.679,0,0,0,1.244,3.168q1.2,2.521,2.515,4.991a108.425,108.425,0,0,0,12.76,18.579,2.42,2.42,0,0,0,3.394,0A2.452,2.452,0,0,0,113.181,185.059Z"/><path class="c" d="M163.174,162.393a53.78,53.78,0,0,1,9.88,8.027,55.264,55.264,0,0,1,4.433,4.946c.586.748,1.138,1.524,1.655,2.32.261.4.513.809.752,1.223.1.176.2.353.3.532.071.13.139.261.206.393q.173.352-.058-.192l.328-1.212c.186-.18.155-.187-.091-.019l-.633.349-.844.465-2.32,1.28-4.43,2.443a2.419,2.419,0,0,0-.486,3.77c2.2,1.989,4.383,3.991,6.5,6.063q.772.756,1.534,1.525c.382.386,1.128.878,1.332,1.373.111.27.066.033.065-.034,0,.15-.148.337-.208.461-.327.676-.709,1.333-1.063,2q-3.978,7.446-8.1,14.815c-5.62,10.074-11.4,20.061-17.247,30q-4.827,8.2-9.716,16.368c-1.589,2.658,2.559,5.074,4.144,2.423,12.292-20.564,24.449-41.229,35.7-62.384.795-1.5,1.556-2.944,1.154-4.687-.39-1.687-1.84-2.9-3.008-4.068-2.487-2.5-5.086-4.881-7.7-7.247l-.486,3.769,5.907-3.258c1.725-.952,4.366-1.865,4.461-4.193.063-1.523-.967-3-1.762-4.241a43.975,43.975,0,0,0-2.953-4A59.889,59.889,0,0,0,165.6,158.248c-2.643-1.615-5.057,2.534-2.423,4.145Z"/><path class="c" d="M93.563,158.248A59.927,59.927,0,0,0,78.736,171.4a43.975,43.975,0,0,0-2.953,4c-.791,1.233-1.84,2.72-1.762,4.241.119,2.33,2.721,3.233,4.461,4.193l5.907,3.258-.486-3.769c-2.494,2.258-4.975,4.532-7.359,6.907a16.651,16.651,0,0,0-2.834,3.141,5.013,5.013,0,0,0,.111,4.957c2.619,5.313,5.668,10.46,8.594,15.608C88.536,224.7,94.9,235.329,101.362,245.9q5.378,8.8,10.829,17.555c1.626,2.619,5.78.211,4.144-2.423-12.32-19.84-24.6-39.743-35.761-60.266q-1.118-2.054-2.215-4.116c-.131-.246-.269-.491-.393-.74-.159-.319-.084-.149-.075-.17a8.929,8.929,0,0,1,1.707-1.772c2.488-2.5,5.087-4.881,7.7-7.247a2.419,2.419,0,0,0-.486-3.77l-4.429-2.443-2.11-1.164-1.055-.581c-.189-.1-.945-.742-.724-.33l.328,1.212c.016.383-.167.362.078-.07.1-.175.192-.354.291-.529.234-.414.482-.819.738-1.219.51-.794,1.055-1.57,1.632-2.316a61.449,61.449,0,0,1,14.426-13.115c2.631-1.609.222-5.762-2.423-4.145Z"/><path class="c" d="M217.076,285.141l4.74-.6a2.672,2.672,0,0,0,1.7-.7,2.4,2.4,0,0,0,0-3.395,2.3,2.3,0,0,0-1.7-.7l-4.74.6a2.658,2.658,0,0,0-1.7.7,2.4,2.4,0,0,0,0,3.394,2.306,2.306,0,0,0,1.7.7Z"/><path class="c" d="M41.816,280.341l-4.74-.6a2.384,2.384,0,0,0-1.7.7,2.4,2.4,0,0,0,0,3.395l.486.375a2.4,2.4,0,0,0,1.211.328l4.74.6a2.391,2.391,0,0,0,1.7-.7,2.4,2.4,0,0,0,0-3.394l-.486-.376a2.384,2.384,0,0,0-1.211-.327Z"/><path class="b" d="M129.58,217.988c-35.513.257-70.855.464-83.4.506a3.607,3.607,0,0,0-3.6,3.624c.073,20.388,1.056,90.946,1.8,116.881a3.612,3.612,0,0,0,3.675,3.507c11.34-.175,46.465-.067,81.52.053,35.055-.12,70.18-.228,81.52-.053A3.612,3.612,0,0,0,214.775,339c.749-25.935,1.732-96.493,1.805-116.881a3.607,3.607,0,0,0-3.6-3.624C200.435,218.452,165.093,218.245,129.58,217.988Z"/><path class="c" d="M129.58,215.588q-37.2.27-74.408.467-2.793.015-5.584.026c-1.725.007-3.739-.234-5.378.356a6.253,6.253,0,0,0-4.028,6.272q.007,1.806.021,3.612.072,10.5.208,20.994.33,27.963.816,55.924.219,12.564.491,25.127.109,4.848.241,9.7c.071,2.556.84,4.9,3.263,6.16,1.733.9,3.724.667,5.608.65,22.766-.213,45.539-.024,68.305.051,26.012.085,52.025-.152,78.038-.1,3.787.007,7.575.017,11.363.054,1.948.019,3.925.214,5.69-.807,2.4-1.39,2.916-3.841,2.986-6.39.2-7.157.344-14.316.483-21.475q.546-28.119.9-56.243.163-12.336.29-24.672.045-4.622.078-9.243c.008-1.211.029-2.424.02-3.635a6.145,6.145,0,0,0-4.671-6.163,24.634,24.634,0,0,0-5.19-.168l-5.555-.026q-7.263-.036-14.524-.078-19.369-.109-38.74-.242-10.361-.07-20.719-.145c-3.089-.022-3.093,4.778,0,4.8q36.484.264,72.969.46c3.4.017,6.859-.145,10.257.046,1.546.087,1.374,1.391,1.368,2.589q-.009,1.842-.023,3.683-.075,10.361-.208,20.722-.326,27.359-.8,54.716-.214,12.318-.477,24.636-.107,4.827-.233,9.652c-.027,1,.3,2.9-.988,3.2a9.223,9.223,0,0,1-2.02-.011q-1.142-.014-2.283-.021c-22.454-.175-44.912-.013-67.365.061-25.444.084-50.887-.142-76.331-.106-3.921.006-7.842.015-11.762.047a16.547,16.547,0,0,1-4,0c-1.314-.359-.941-2.42-.97-3.475-.192-7.185-.338-14.371-.476-21.556q-.525-27.38-.869-54.76-.159-12.069-.285-24.14-.047-4.579-.081-9.16-.012-1.824-.022-3.65c-.007-1.439.027-2.426,1.733-2.433q31.314-.111,62.628-.362,10.117-.069,20.234-.142C132.667,220.366,132.674,215.566,129.58,215.588Z"/><path class="c" d="M59.71,330.411c17.185-.107,34.372-.015,51.557.038,21.055.065,42.108-.034,63.162-.065,8.34-.012,16.681-.025,25.021.027,3.09.02,3.093-4.78,0-4.8-17.185-.107-34.372-.015-51.557.038-21.055.065-42.108-.034-63.162-.065-8.34-.012-16.681-.025-25.021.027-3.088.019-3.095,4.82,0,4.8Z"/><path class="c" d="M129.58,267.837c-2.594.025-5.188.06-7.782.062a2.437,2.437,0,0,0-2.4,2.4q-.015,4.082-.011,8.163c0,1.6,0,3.2.02,4.8.005.574,0,1.151.023,1.725a2.52,2.52,0,0,0,2.676,2.617c4.663,0,9.326-.032,13.988-.01a4.652,4.652,0,0,0,2.441-.306c1.138-.665,1.191-1.854,1.207-3.014.021-1.5.025-2.993.029-4.49q.011-4.74-.009-9.48a2.437,2.437,0,0,0-2.4-2.4c-2.594,0-5.188-.037-7.782-.062a2.4,2.4,0,1,0,0,4.8c2.594.025,5.188.06,7.782.062l-2.4-2.4c.019,4.968.086,9.944-.037,14.911l.328-1.211h0l2.072-1.189c-.855-.079-1.738-.025-2.595-.024-1.716,0-3.433.017-5.149.017-1.676,0-3.352-.016-5.028-.017-.9,0-1.821-.058-2.716.024L123.908,284h0l.327,1.211c-.123-4.967-.056-9.943-.037-14.911l-2.4,2.4c2.594,0,5.188-.037,7.782-.062a2.4,2.4,0,0,0,0-4.8Z"/><path class="c" d="M120.3,126.708a20.384,20.384,0,0,0,9.819,2.269c3.507-.023,7.064-.708,9.875-2.9a2.413,2.413,0,0,0,0-3.394,2.462,2.462,0,0,0-3.394,0c.717-.559.122-.105-.062.013s-.4.245-.612.355c-.157.082-.892.382-.267.147-.281.106-.559.215-.845.307a14.06,14.06,0,0,1-5.013.67c-.5,0-1-.02-1.5-.054-.23-.016-.46-.034-.689-.057,0,0-.8-.107-.379-.042a16.512,16.512,0,0,1-2.21-.491c-.309-.092-.611-.2-.916-.308-.1-.034-.195-.086-.3-.115.6.172.206.092.039.013-.379-.178-.752-.364-1.123-.56a2.453,2.453,0,0,0-3.284.861,2.426,2.426,0,0,0,.862,3.284Z"/><path class="c" d="M128.973,103.472a46.329,46.329,0,0,1,1.094,5.006l-.085-.638a3.072,3.072,0,0,1,.019.691l.085-.638a1.661,1.661,0,0,1-.076.311l.242-.574a1.207,1.207,0,0,1-.109.2l.375-.485a1.135,1.135,0,0,1-.164.161l.486-.375a3.325,3.325,0,0,1-.4.209l.573-.242a2.843,2.843,0,0,1-.668.2l.638-.085a2.692,2.692,0,0,1-.628,0l.638.085c-.236-.033-.468-.09-.705-.122a2.655,2.655,0,0,0-1.849.242,2.4,2.4,0,0,0-.861,3.284,2.292,2.292,0,0,0,1.434,1.1c.524.071,1.032.2,1.564.228a4.976,4.976,0,0,0,2.286-.541,3.262,3.262,0,0,0,1.82-2.155,5.485,5.485,0,0,0-.024-2.341c-.273-1.613-.645-3.211-1.06-4.793a2.4,2.4,0,0,0-4.629,1.276Z"/><path class="c" d="M102.344,89.34c-.836,2.717-.291,8.966,4.856,9.5,6.8-.041,7.164-7.6,4.874-11.149C110.2,84.781,104.686,83.571,102.344,89.34Z"/><path class="c" d="M156.816,89.34c.836,2.717.291,8.966-4.855,9.5-6.8-.041-7.165-7.6-4.875-11.149C148.961,84.781,154.473,83.571,156.816,89.34Z"/><path class="c" d="M67.49,116.9c-.054,3.879-.146,7.764.05,11.641a36.272,36.272,0,0,0,1.608,10.117c1.956,5.577,7.755,8.9,12.841,11.184a2.473,2.473,0,0,0,3.283-.861,2.418,2.418,0,0,0-.861-3.284c-4.053-1.817-9.468-4.381-10.855-9.009C71.664,130.379,72.2,123.4,72.29,116.9c.043-3.09-4.757-3.092-4.8,0Z"/><path class="c" d="M89.177,143.331c2.613,2.048,3.092,5.388,1.155,7.715a8.181,8.181,0,0,1-6.5,2.55c-2.614-.085-6.108-2.635-6.519-5.559-.4-2.834,3-5.263,6.126-5.938A6.65,6.65,0,0,1,89.177,143.331Z"/><path class="b" d="M68.182,78.014c-6.963,1.234-9.853,10.654-9.287,18.679.535,7.6,2.552,15.718,9.174,19.554,2.616,1.186,6.57,1.778,8.872-.709s2.816-6.206,3.017-9.673A92.082,92.082,0,0,0,79.2,87.6c-.482-3.391-1.172-5.879-3.715-8.023C73.253,77.7,70.157,77.664,68.182,78.014Z"/><path class="c" d="M67.544,75.7c-6.83,1.333-9.965,8.6-10.81,14.8a37.858,37.858,0,0,0,.279,10.832,29.939,29.939,0,0,0,3.248,10.142c1.714,3.076,4.392,6.027,7.729,7.323,3.354,1.3,7.479,1.3,10.277-1.2,3.022-2.7,3.758-7.125,4.04-10.955A87.91,87.91,0,0,0,82.19,92.87c-.356-4.256-.507-9.38-3.152-12.957C76.26,76.155,72.03,74.966,67.544,75.7a2.417,2.417,0,0,0-1.676,2.952,2.456,2.456,0,0,0,2.952,1.676,6.341,6.341,0,0,1,6.458,2.554c1.636,2.46,1.728,5.948,2,8.788a92.084,92.084,0,0,1,.385,11.791c-.1,3.074-.082,6.63-1.693,9.366-1.3,2.219-3.51,2.351-5.809,1.654-2.417-.733-4.332-2.969-5.586-5.125-2.768-4.759-3.639-11.025-3.3-16.458a20.023,20.023,0,0,1,2.129-8.172,7.762,7.762,0,0,1,5.408-4.4A2.422,2.422,0,0,0,70.5,77.376,2.45,2.45,0,0,0,67.544,75.7Z"/></svg>