<svg xmlns="http://www.w3.org/2000/svg" width="273.97" height="320.981" viewBox="0 0 273.97 320.981"><defs><style>.a{fill:#fff;}.b{fill:#85807f;}.c{fill:#211715;}</style></defs><path class="a" d="M101.807,318.581H88.774c4.232-21.568,9.316-45.978,12.241-61.024h71.548c1.841,9.415,4.35,22.242,4.35,22.242,1.8,8.864,5.408,26.6,7.78,38.782Z"/><path class="a" d="M176.46,69.17a6.293,6.293,0,0,1,4.583-1.672,5.867,5.867,0,0,1,5.265,2.978c1.781,3.144,1.683,8.924.466,12.5-.862,2.529-2.274,6.4-5.651,9.164a6.758,6.758,0,0,1-6,1.4,48.665,48.665,0,0,1-8.991,17.158,33.536,33.536,0,0,1-10.6,8.959c0,2.984,0,5.2,0,5.2a9.6,9.6,0,0,0,.41,3.4,8.262,8.262,0,0,0,2.48,3.61c2.52,2.03,5.11,3,8.3,4.2l2.664,1.051c-7.162,5.745-19.927,10.341-33.224,10.38-13.207-.039-25.889-4.573-33.079-10.263l2.969-1.168c3.19-1.2,5.78-2.17,8.3-4.2a8.262,8.262,0,0,0,2.48-3.61,9.6,9.6,0,0,0,.41-3.4c0-1.729,0-3.118,0-4.253a36.86,36.86,0,0,1-11.73-9.907,48.708,48.708,0,0,1-9.068-17.42,6.806,6.806,0,0,1-5.816-1.5c-3.355-2.791-4.737-6.671-5.579-9.207-1.19-3.581-1.243-9.362.562-12.492A5.869,5.869,0,0,1,90.9,67.144a6.3,6.3,0,0,1,4.57,1.708s-6.818-35.51,41.735-35.51C182.245,33.342,176.46,69.17,176.46,69.17Z"/><path class="b" d="M89.078,35.141a49.864,49.864,0,0,0-.189,32.32,7.553,7.553,0,0,1,1.974-.316,6.3,6.3,0,0,1,4.577,1.69h0a8.068,8.068,0,0,0,6.44-2.449l.032-.034c4.857-5.459,13.43-13.689,19.446-16.871.706-.374,1.612.131,1.9,1.32a7.885,7.885,0,0,1,.186,2.847,1.472,1.472,0,0,0,2.094,1.592c4.3-2.406,11.947-7.25,17.373-9.557l8.047,1a25.959,25.959,0,0,1,7.411,4.7c4.884,4.239,9.566,10.055,11.64,15.319h0a5.607,5.607,0,0,0,6.408,2.139l.016-.005a6.293,6.293,0,0,1,4.576-1.69,7.453,7.453,0,0,1,2.193.387c3.96-15.943,1.583-36.538-10.782-46.438l-5.383-5.645C160.927,7.4,151,3.033,136.819,2.411c-18.449-.624-32.068,7.632-38.1,15.32l1.2,1.309A38.811,38.811,0,0,0,89.078,35.141Z"/><path class="c" d="M100.42,19.428c5.337-6.741,13.413-10.977,21.661-13.084a52.935,52.935,0,0,1,17.3-1.377,46.193,46.193,0,0,1,14.367,3.249,27.747,27.747,0,0,1,11.219,8.444,2.48,2.48,0,0,0,3.283.862,2.416,2.416,0,0,0,.861-3.284,32.355,32.355,0,0,0-11-9.251A47.4,47.4,0,0,0,142.239.456C130.625-.976,118.512.927,108.27,6.732a38.446,38.446,0,0,0-11.244,9.3,2.476,2.476,0,0,0,0,3.394,2.416,2.416,0,0,0,3.394,0Z"/><path class="c" d="M91.2,66.825c-4.044-12.591-3.387-26.9,3.75-38.289a35.447,35.447,0,0,1,6.7-7.83c2.327-2.041-1.079-5.424-3.394-3.394-10.663,9.35-15.3,24.06-14.211,37.962A56.341,56.341,0,0,0,86.575,68.1c.941,2.93,5.577,1.677,4.629-1.276Z"/><path class="c" d="M128.246,106.61a16.743,16.743,0,0,0,8.117,1.9,13.21,13.21,0,0,0,8.257-2.479,2.4,2.4,0,0,0,0-3.394,2.473,2.473,0,0,0-3.394,0c.741-.582.238-.185.047-.061-.16.1-.324.2-.492.287-.207.109-.793.28-.1.073-.229.068-.45.175-.678.249a12.812,12.812,0,0,1-1.9.436c.356-.058.141-.018-.091,0-.186.018-.372.034-.559.046q-.673.043-1.348.038-.6,0-1.208-.044c-.184-.012-.368-.027-.552-.046-.091-.009-.761-.132-.178-.018a17.916,17.916,0,0,1-1.772-.4c-.249-.075-.491-.164-.735-.249-.582-.2.432.215-.093-.036-.3-.145-.6-.3-.9-.453a2.4,2.4,0,1,0-2.423,4.144Z"/><path class="c" d="M134.99,87.535a37.9,37.9,0,0,1,.878,4.051l-.086-.638a2.432,2.432,0,0,1,.015.559l.086-.638a1.352,1.352,0,0,1-.061.251l.242-.573a1.1,1.1,0,0,1-.088.162l.375-.486a.805.805,0,0,1-.131.13l.486-.375a2.625,2.625,0,0,1-.318.17l.573-.242a2.291,2.291,0,0,1-.536.158l.638-.086a2.116,2.116,0,0,1-.5,0l.638.086c-.19-.027-.376-.073-.566-.1a1.823,1.823,0,0,0-.957-.043,1.774,1.774,0,0,0-.892.285,2.4,2.4,0,0,0-.861,3.283,2.293,2.293,0,0,0,1.434,1.1c.462.063.91.18,1.381.2a4.463,4.463,0,0,0,2.073-.5,3.074,3.074,0,0,0,1.678-2.018,4.974,4.974,0,0,0-.019-2.138c-.219-1.3-.518-2.6-.85-3.878a2.4,2.4,0,0,0-2.953-1.676,2.446,2.446,0,0,0-1.676,2.952Z"/><path class="c" d="M114.087,75.978c-.671,2.2-.233,7.255,3.895,7.686,5.456-.033,5.747-6.147,3.91-9.022C120.388,72.289,115.966,71.31,114.087,75.978Z"/><path class="c" d="M157.782,75.978c.671,2.2.234,7.255-3.894,7.686-5.457-.034-5.748-6.147-3.911-9.022C151.481,72.289,155.9,71.31,157.782,75.978Z"/><path class="c" d="M170.72,22.791c9.8,7.948,12.42,21.672,11.736,33.667a57.521,57.521,0,0,1-1.57,10.431c-.735,3,3.892,4.28,4.628,1.276,3.212-13.106,2.706-28.456-4.259-40.331a31.082,31.082,0,0,0-7.141-8.437,2.472,2.472,0,0,0-3.394,0,2.418,2.418,0,0,0,0,3.394Z"/><path class="c" d="M149.743,48.753a32.271,32.271,0,0,1,10.33,7.575,36.228,36.228,0,0,1,7.619,11.011,2.474,2.474,0,0,0,2.952,1.676,2.416,2.416,0,0,0,1.677-2.952,41.722,41.722,0,0,0-8.61-12.872,36.107,36.107,0,0,0-11.545-8.583,2.477,2.477,0,0,0-3.284.861,2.419,2.419,0,0,0,.861,3.284Z"/><path class="c" d="M103.609,68.049a90.835,90.835,0,0,1,16.046-14.712c.618-.421,1.246-.828,1.889-1.208a4.032,4.032,0,0,0,.518-.3c.339-.291.374.1-.213-.07-.912-.259-.934-.814-.79.229.122.881-.117,1.755.062,2.63a4.023,4.023,0,0,0,1.836,2.663c1.9,1.127,3.637.131,5.308-.838,1.524-.884,3.038-1.786,4.559-2.677a103.683,103.683,0,0,1,11.3-6.011,2.416,2.416,0,0,0,.861-3.284,2.462,2.462,0,0,0-3.284-.861,95.6,95.6,0,0,0-10.128,5.329c-1.587.922-3.164,1.86-4.747,2.788-.671.392-1.341.784-2.017,1.168-.058.033-.483.265-.481.272l.528-.016a.5.5,0,0,1,.74.243c.727.262-.028.375.263.1a2.731,2.731,0,0,0,.039-.8c-.013-2.132-.635-4.758-2.91-5.516-1.838-.612-3.441.512-4.929,1.473a71.039,71.039,0,0,0-8.988,7.114,118.5,118.5,0,0,0-8.852,8.9c-2.052,2.3,1.332,5.7,3.394,3.394Z"/><path class="c" d="M93.338,90.772a51.782,51.782,0,0,0,11.028,22.279c5.228,6.169,11.994,11.1,20.136,12.354a2.477,2.477,0,0,0,2.952-1.676,2.418,2.418,0,0,0-1.676-2.952c-7.426-1.144-13.249-5.494-18.018-11.12A46.75,46.75,0,0,1,97.966,89.5c-.666-3.015-5.295-1.739-4.628,1.276Z"/><path class="c" d="M173.683,89.5a47.069,47.069,0,0,1-8.661,18.776,35.437,35.437,0,0,1-7.363,7.281,32.71,32.71,0,0,1-8.771,4.252c-2.924.955-1.673,5.591,1.276,4.629a37.152,37.152,0,0,0,9.918-4.737,40.2,40.2,0,0,0,8.335-8.031,51.709,51.709,0,0,0,9.894-20.894c.665-3.011-3.961-4.3-4.628-1.276Z"/><path class="c" d="M178.157,70.867a4.148,4.148,0,0,1,3.437-.925,3.97,3.97,0,0,1,1.766.694c-.17-.123.809.873.487.447,1.539,2.038,1.545,5.089,1.362,7.516a19.426,19.426,0,0,1-2.305,7.5c-1.194,2.249-3.536,5.681-6.529,5.27a2.482,2.482,0,0,0-2.952,1.676,2.417,2.417,0,0,0,1.676,2.952c7.642,1.051,12.107-6.341,14.085-12.679,1.632-5.228,1.669-13.4-3.4-16.824a9.187,9.187,0,0,0-11.02.982c-2.3,2.068,1.1,5.453,3.394,3.394Z"/><path class="c" d="M97.167,67.155a9.228,9.228,0,0,0-10.124-1.528,8.9,8.9,0,0,0-4.619,6.006C80.8,77.615,82.3,84.581,85.667,89.716c2.273,3.466,5.9,6.625,10.337,6.051a2.479,2.479,0,0,0,2.4-2.4,2.413,2.413,0,0,0-2.4-2.4c-3.3.427-5.512-2.3-6.949-4.94a19.43,19.43,0,0,1-2.393-7.651c-.186-2.469-.164-5.516,1.359-7.606.095-.132.076-.106-.057.08q.149-.172.311-.332c.048-.042.534-.428.3-.264a3.839,3.839,0,0,1,1.594-.638,4.166,4.166,0,0,1,3.6.933c2.279,2.078,5.683-1.308,3.394-3.394Z"/><path class="c" d="M153.135,119.654v4.181a15.145,15.145,0,0,0,.5,5.057,12.641,12.641,0,0,0,6.228,6.814c3.316,1.834,7.063,3,10.588,4.392a2.417,2.417,0,0,0,2.952-1.676,2.455,2.455,0,0,0-1.676-2.952c-2.913-1.15-6.005-2.161-8.694-3.515a15.149,15.149,0,0,1-3.125-1.971,5.842,5.842,0,0,1-1.747-2.666,15.687,15.687,0,0,1-.222-4.116v-3.548c0-3.089-4.8-3.094-4.8,0Z"/><path class="c" d="M114.845,120.594v3.783a19.013,19.013,0,0,1-.051,2.188,6.963,6.963,0,0,1-.342,1.211,5.777,5.777,0,0,1-1.767,2.373,17.38,17.38,0,0,1-3.316,2c-2.518,1.213-5.547,2.233-8.322,3.326a2.472,2.472,0,0,0-1.676,2.952,2.417,2.417,0,0,0,2.952,1.676,102.322,102.322,0,0,0,10.2-4.177,12.973,12.973,0,0,0,6.285-6.207c1.22-2.838.837-6.1.837-9.12a2.4,2.4,0,0,0-4.8,0Z"/><path class="a" d="M104.233,244.388,59.985,257.119l-6.425-3.283c-7.908-3.389-14.4-10.606-13.964-20.723.361-8.333,2.644-17.441,3.972-22.666,4.084-16.055,11.5-40.25,15.306-46.389A45.7,45.7,0,0,1,76.4,147.863a173.605,173.605,0,0,1,24.4-9.972c.711-.235,1.439-.492,2.165-.757l.266.208c7.213,5.639,19.815,10.114,32.935,10.153,13.12-.039,25.722-4.514,32.934-10.153l.37-.306c1.7.621,3.432,1.247,4.6,1.694,8.774,3.367,16.917,6.459,24.25,10.389a45.141,45.141,0,0,1,16.875,15.57c2.288,3.595,5.794,12,7.108,15.986,3.021,9.159,5.6,19.242,9.073,31.611a95.738,95.738,0,0,1,3.278,21.052c.438,10.117-5.667,18.448-13.889,20.781l-7.889,3-41.333-13.36c-20.283.018-45.308.036-65.306.053Z"/><path class="c" d="M58.805,227.643a49.455,49.455,0,0,1,15.821-3.862,2.457,2.457,0,0,0,2.4-2.4,2.421,2.421,0,0,0-2.4-2.4A55.254,55.254,0,0,0,56.382,223.5a2.417,2.417,0,0,0-.861,3.284,2.464,2.464,0,0,0,3.284.861Z"/><path class="c" d="M106.235,246.212l51.212-.041,14.094-.012c3.088,0,3.093-4.8,0-4.8q-25.68.022-51.361.042l-13.945.011c-3.088,0-3.094,4.8,0,4.8Z"/><path class="c" d="M194.28,182.563c-.809,15.259-2.061,30.49-2.894,45.747-.168,3.087,4.632,3.077,4.8,0,.833-15.257,2.085-30.488,2.894-45.747.164-3.087-4.636-3.078-4.8,0Z"/><path class="c" d="M164.444,137.684c4.285,1.768,8.7,3.243,13.024,4.912,5.458,2.106,10.906,4.257,16.167,6.822a50.6,50.6,0,0,1,12.933,8.562,39.985,39.985,0,0,1,8.334,11.154c4.135,8.277,6.736,17.1,9.227,25.982,1.553,5.537,3.05,11.089,4.6,16.626a95.279,95.279,0,0,1,3.027,15.176c.615,5.552,1.087,11.22-1.57,16.344a16.76,16.76,0,0,1-10.06,8.543c-2.957.869-1.7,5.5,1.276,4.629,9.716-2.857,15.779-12.412,15.672-22.331-.131-12.02-3.683-23.483-6.843-34.955-2.676-9.714-5.312-19.423-9.41-28.653a50.188,50.188,0,0,0-7.552-12.417,47.476,47.476,0,0,0-12.7-10.457,144.262,144.262,0,0,0-18.751-8.458c-5.338-2.095-10.8-3.92-16.1-6.108a2.415,2.415,0,0,0-2.952,1.676,2.461,2.461,0,0,0,1.676,2.953Z"/><path class="c" d="M73.742,179.585c.676,10.069,1.672,20.115,2.372,30.182a2.458,2.458,0,0,0,2.4,2.4,2.419,2.419,0,0,0,2.4-2.4c-.7-10.067-1.7-20.113-2.372-30.182a2.457,2.457,0,0,0-2.4-2.4,2.421,2.421,0,0,0-2.4,2.4Z"/><path class="c" d="M107.117,133.055c-5.977,2.1-12,4.139-17.9,6.468a121.121,121.121,0,0,0-15.788,7.216A47.35,47.35,0,0,0,60.06,158.275a40.889,40.889,0,0,0-5.928,10.212A266.3,266.3,0,0,0,44.991,196.1c-2.959,10.247-5.927,20.642-7.282,31.243-.8,6.225-.793,12.3,2.395,17.9a25.949,25.949,0,0,0,12.244,10.66,2.479,2.479,0,0,0,3.284-.861,2.418,2.418,0,0,0-.861-3.284,22.063,22.063,0,0,1-10-8.078c-2.694-4.227-3.01-8.789-2.556-13.668.942-10.141,3.868-20.139,6.629-29.91,2.621-9.273,5.4-18.55,8.823-27.562A39.1,39.1,0,0,1,61.5,164.4a42.847,42.847,0,0,1,11.589-11.781c4.891-3.335,10.552-5.7,16.02-7.912,6.334-2.566,12.837-4.754,19.282-7.021a2.461,2.461,0,0,0,1.676-2.953,2.421,2.421,0,0,0-2.952-1.676Z"/><path class="c" d="M2.318,246.327c12.519,0,25.037-.056,37.556-.056,3.089,0,3.094-4.8,0-4.8-12.519,0-25.037.055-37.556.056-3.088,0-3.093,4.8,0,4.8Z"/><path class="c" d="M233.318,246.324c9.976,0,19.952-.034,29.928-.046q4.2-.006,8.406-.007c3.088,0,3.093-4.8,0-4.8q-16.293,0-32.585.046-2.874,0-5.749.007c-3.088,0-3.093,4.8,0,4.8Z"/><path class="c" d="M101.533,139.039c7.337,5.674,16.526,8.869,25.648,10.162a63.179,63.179,0,0,0,30.642-3.173,48.2,48.2,0,0,0,12.973-6.989,2.411,2.411,0,0,0,0-3.394,2.462,2.462,0,0,0-3.394,0c-6.568,5.08-15.2,7.73-23.308,8.9a58.333,58.333,0,0,1-27.735-2.933,41.438,41.438,0,0,1-11.432-5.963,2.481,2.481,0,0,0-3.394,0,2.416,2.416,0,0,0,0,3.394Z"/><path class="a" d="M187.828,278.293c-.55.409-1.1.8-1.64,1.139-1.245.794-4.121,1.8-6.025.838a3.629,3.629,0,0,1-2-2.766l-.156.1c-2.4,1.594-6.368,2.541-8.694.715a5.313,5.313,0,0,1-.869-6.44,8.214,8.214,0,0,1,.806-1.274c-1.266.576-3.647,1.367-5.2-1.463-1.026-1.874-.373-4.893,1.826-7.243.829-.887,2.528-3.132,4.239-4.8.367-.356.74-.71,1.115-1.061l-1.644-.155a4.049,4.049,0,0,1-3.369-2.011,4.8,4.8,0,0,1-.2-3.443c.7-2.262,4.325-4.893,8.1-7.154A31,31,0,0,1,185.4,238.99a38.622,38.622,0,0,1,11.08-.42c3.759.4,6.476,1.99,9.245,3.626a24.636,24.636,0,0,1,6.236,6.206,18.314,18.314,0,0,1,2.585,9.078c-.122,4.9-1.225,7.709-4.1,11.042a82.434,82.434,0,0,1-6.52,6.6c-2.682,2.366-5.355,2.8-7.355,2.066-1.609-.59-1.944-3.545-1.375-4.753l.108-.229-.054.043c-.6.472-1.132.885-1.524,1.2C192.345,274.541,190.089,276.612,187.828,278.293Z"/><path class="c" d="M181.708,255.131c-2.93,2.563-5.741,5.25-8.542,7.952-2.466,2.38-5.391,4.769-6.959,7.883-1.667,3.313-.874,8.058,2.616,9.884,3.257,1.7,7.445.724,10.4-1.17,2.592-1.662.188-5.818-2.423-4.145a8.613,8.613,0,0,1-3.331,1.329,7.664,7.664,0,0,1-1.441.041,3.461,3.461,0,0,1-.833-.22c.244.1-.694-.48-.348-.2a2.485,2.485,0,0,1-.463-.689,3.208,3.208,0,0,1-.231-1.758,5.826,5.826,0,0,1,1.353-2.429,78.665,78.665,0,0,1,6.134-6.171c2.441-2.355,4.91-4.678,7.463-6.911a2.422,2.422,0,0,0,0-3.394,2.447,2.447,0,0,0-3.394,0Z"/><path class="c" d="M167.611,268.675c-.085.022-.72.127-.18.074a3.635,3.635,0,0,1-.542.013c.064,0-.135-.029-.157-.049a6.008,6.008,0,0,1-.42-.466l-.184-.312q.083.266,0,.023a2.936,2.936,0,0,1-.158-.6c.058.374.012-.4.013-.4.053-1.678,1.51-3.222,2.681-4.626a88.841,88.841,0,0,1,10.944-10.475,2.42,2.42,0,0,0,0-3.394,2.45,2.45,0,0,0-3.394,0,89.828,89.828,0,0,0-12.707,12.549c-1.84,2.335-3.036,5.65-1.875,8.559a5.948,5.948,0,0,0,7.253,3.732c2.983-.788,1.718-5.419-1.276-4.628Z"/><path class="c" d="M190.2,260.215c-3.167,2.811-6.385,5.57-9.429,8.516-2.677,2.59-6.028,5.951-4.77,10.041,1.433,4.662,6.683,4.937,10.479,3.217a23.421,23.421,0,0,0,4.841-3.4c1.383-1.128,2.707-2.326,4.1-3.439,2.707-2.163,5.541-4.187,8.132-6.49a2.4,2.4,0,0,0-3.394-3.394c-2.023,1.8-4.206,3.425-6.34,5.087-2.256,1.758-4.382,3.671-6.631,5.436a11.972,11.972,0,0,1-3.59,2.2c-1,.305-2.325.522-2.867-.3-.478-.727-.191-1.348.461-2.292a24.129,24.129,0,0,1,3.284-3.563c2.958-2.829,6.057-5.5,9.118-8.216a2.4,2.4,0,0,0-3.395-3.394Z"/><path class="c" d="M169.592,253.485c-1,.034-1.486-.969-1.372-1.877a4.794,4.794,0,0,1,1.8-2.533,35.618,35.618,0,0,1,9.071-5.724,30.837,30.837,0,0,1,9.392-2.376,26.512,26.512,0,0,1,10.3.5,21.123,21.123,0,0,1,7.084,3.8,16.772,16.772,0,0,1,4.97,6.251,15.217,15.217,0,0,1,1,9.228,14.043,14.043,0,0,1-3.6,6.656c-1.158,1.3-2.372,2.545-3.61,3.764a18.737,18.737,0,0,1-3.908,3.3,5.021,5.021,0,0,1-1.889.627,5.674,5.674,0,0,1-.763.008c-.1-.013-.788-.225-.454-.046.257.138-.06-.055-.163-.309.076.188-.1-.534-.09-.443a1.743,1.743,0,0,1,.155-1.235,2.415,2.415,0,0,0-1.677-2.952,2.459,2.459,0,0,0-2.952,1.676,6.769,6.769,0,0,0,.191,4.839,4.947,4.947,0,0,0,4.014,3.146c4.44.712,7.837-2.182,10.794-5.082,2.647-2.6,5.567-5.376,7.218-8.745a19.6,19.6,0,0,0,1.561-11.741c-1.31-7.627-7.107-13.348-13.975-16.371a27.036,27.036,0,0,0-13.38-1.754,38.536,38.536,0,0,0-12.637,3.114,44.168,44.168,0,0,0-6.51,3.751,20.772,20.772,0,0,0-5.469,4.892,7.185,7.185,0,0,0-.926,6.363,6.346,6.346,0,0,0,5.832,4.072c3.081-.105,3.095-4.905,0-4.8Z"/><path class="c" d="M174.6,280.437c2.629,12.92,5.259,25.84,7.78,38.782a2.423,2.423,0,0,0,2.952,1.676,2.451,2.451,0,0,0,1.677-2.952c-2.522-12.942-5.151-25.862-7.78-38.782a2.4,2.4,0,0,0-4.629,1.276Z"/><path class="c" d="M88.774,320.981h95.919c3.089,0,3.094-4.8,0-4.8H88.774c-3.089,0-3.094,4.8,0,4.8Z"/><path class="c" d="M91.088,319.219c3.012-15.341,6.156-30.655,9.247-45.979q1.1-5.465,2.187-10.933a2.462,2.462,0,0,0-1.676-2.953,2.424,2.424,0,0,0-2.953,1.677c-2.877,14.554-5.881,29.083-8.8,43.63q-1.331,6.637-2.637,13.282a2.461,2.461,0,0,0,1.676,2.952,2.422,2.422,0,0,0,2.952-1.676Z"/><path class="c" d="M113.361,259.957H164.8c3.088,0,3.093-4.8,0-4.8H113.361c-3.089,0-3.094,4.8,0,4.8Z"/><path class="c" d="M79.535,310.084q-5.3-.612-10.572-1.484l1.434,3.525q8.692-15.708,17.38-31.42c1.494-2.706-2.65-5.131-4.144-2.423Q74.958,294,66.253,309.7c-.681,1.231-.151,3.265,1.434,3.526q5.9.972,11.848,1.656a2.414,2.414,0,0,0,2.4-2.4,2.457,2.457,0,0,0-2.4-2.4Z"/><path class="c" d="M102.125,236.668c-5.078-9.076-10.714-19.319-12.839-22.693a3.077,3.077,0,0,0-3.226-1.725,5.89,5.89,0,0,0-3.153,1.66,2.953,2.953,0,0,0-.213,3.589c6.578,10.5,12.79,20.536,15.813,25.567,2.946,4.9,11.087,18.286,14.945,24.443a2.539,2.539,0,0,0,4.391-2.543C114.746,259.158,108.6,248.24,102.125,236.668Z"/><path class="a" d="M102.955,235.338a16.445,16.445,0,0,0-4.958-2.3,16.24,16.24,0,0,0-4.045-.595,40.7,40.7,0,0,0-5.2.441,58.966,58.966,0,0,1-9.819.468c-1.744-.106-4.5-.061-5.936.928a21.742,21.742,0,0,0-5.8,5.533,45.188,45.188,0,0,0-5.853,12.206c-.57,1.657-.4,5.054,1.04,6.052,2.954,2.043,9.859,9.42,13.866,11.244a12.787,12.787,0,0,0,4.9,1.192c2.14.012,4.8-1.126,4.746-4.631a6.982,6.982,0,0,0,4.936,1.554,6.347,6.347,0,0,0,2.946-.819,5.648,5.648,0,0,0,2.126-4.823l-.034-.356c.339.275.688.55,1.044.829a6.279,6.279,0,0,0,7.452-.256c.983-1,2.209-4.123,1.372-6.324l-.118-.284c.213.193.436.384.661.576a7.5,7.5,0,0,0,3.419,1.473,4.612,4.612,0,0,0,3.582-.627,4.81,4.81,0,0,0,1.494-4.97,14.127,14.127,0,0,0-2.565-4.824c-2.2-3.085-6.561-9.221-9.254-11.683"/><path class="c" d="M77.352,261.386a72.713,72.713,0,0,0,5.423,5.036c1.671,1.4,3.371,2.792,5.573,3.193a9.157,9.157,0,0,0,6.94-1.148,7.919,7.919,0,0,0,3.014-6.683,2.456,2.456,0,0,0-2.4-2.4,2.42,2.42,0,0,0-2.4,2.4c.014.215.017.423.012.638s.057-.109-.032.261c-.051.212-.105.42-.173.627-.032.1-.229.527-.095.255-.109.222-.234.427-.361.639-.086.143-.2.253-.034.061-.07.079-.548.485-.1.171a3.884,3.884,0,0,1-.362.216c-.464.264.159,0-.382.153-.172.048-.345.094-.516.144a2.8,2.8,0,0,1-.9.076c-.258,0-.512-.022-.769-.03-.19-.007-.318-.029-.052.009a7.009,7.009,0,0,1-1.126-.276c-.333-.105.459.266-.092-.037-.157-.086-.317-.166-.472-.257-.277-.163-.7-.454-.841-.559-.539-.4-1.364-1.119-1.988-1.659-1.551-1.342-3.035-2.756-4.467-4.225a2.4,2.4,0,1,0-3.395,3.4Z"/><path class="c" d="M84.565,254.809c2.309,2.127,4.644,4.227,7.054,6.24,2.106,1.758,4.33,4.086,7.133,4.559,2.523.425,5.6-.087,7.424-2.034a9.209,9.209,0,0,0,1.874-8.535,2.458,2.458,0,0,0-2.953-1.676,2.425,2.425,0,0,0-1.676,2.952,3.658,3.658,0,0,1-.082,2.606A3.5,3.5,0,0,1,102.87,260c-.035.059-.374.538-.16.273.272-.337-.413.373-.061.071.259-.223-.244.137-.315.181-.092.052-.185.1-.28.143q.3-.121.058-.03a6.234,6.234,0,0,1-1.287.328c.4-.049-.308,0-.385,0a5.313,5.313,0,0,1-.787-.038c.338.049-.418-.124-.406-.12-.575-.165.11.113-.427-.167a16.16,16.16,0,0,1-2.37-1.8q-1.285-1.044-2.547-2.12c-2.02-1.723-3.991-3.5-5.944-5.3-2.269-2.09-5.672,1.3-3.394,3.394Z"/><path class="c" d="M83.54,266.048a2.244,2.244,0,0,1-.774,1.654,2.792,2.792,0,0,1-1.489.4,10.066,10.066,0,0,1-5.19-1.622c-3.046-1.924-5.648-4.567-8.305-6.977-1.208-1.1-2.418-2.193-3.725-3.169-.1-.077-.214-.153-.316-.234.378.3.021.03-.01-.041.068.158-.095-.329-.137-.511a6.582,6.582,0,0,1-.118-2.207,25.856,25.856,0,0,1,1.966-5.463,40.372,40.372,0,0,1,3.11-5.769,19.221,19.221,0,0,1,4.557-4.972,5.692,5.692,0,0,1,2.315-1.249,12.059,12.059,0,0,1,2.891-.168,94.246,94.246,0,0,0,12.557-.7c3.841-.386,8.479-.058,11.319,2.938a83.775,83.775,0,0,1,7.07,9.045c1.234,1.724,3.051,3.681,3.257,5.87.214,2.28-1.621,2.543-3.4,1.942a9.656,9.656,0,0,1-3.082-2.224c-1.079-.949-2.145-1.91-3.21-2.875-2.3-2.084-4.594-4.174-6.951-6.194a2.462,2.462,0,0,0-3.394,0,2.421,2.421,0,0,0,0,3.394c2.471,2.118,4.872,4.313,7.285,6.5,2.212,2,4.488,4.6,7.29,5.735,2.656,1.073,5.954,1.236,8.187-.851a7.551,7.551,0,0,0,1.609-7.9,25.782,25.782,0,0,0-3.894-6.441c-1.424-1.981-2.876-3.942-4.384-5.86a23.064,23.064,0,0,0-4.593-4.957,18.092,18.092,0,0,0-6.692-2.724,18.643,18.643,0,0,0-4.761-.328c-.711.04-1.42.1-2.128.183-.394.043-.787.092-1.179.143.175-.023-1.57.2-.912.123a61.5,61.5,0,0,1-7.266.465c-2.511,0-5.116-.365-7.558.43-2.587.843-4.992,3.083-6.761,5.095-3.593,4.089-5.805,9.338-7.551,14.429a9.918,9.918,0,0,0,.016,6.551,5.866,5.866,0,0,0,2.13,2.736c.344.258.063.039,0-.013.181.138.356.285.532.43.37.306.732.621,1.093.938,3.619,3.181,7.057,6.947,11.273,9.357a13.144,13.144,0,0,0,8.624,1.774,6.561,6.561,0,0,0,5.331-5.406,2.476,2.476,0,0,0-1.676-2.952,2.417,2.417,0,0,0-2.952,1.676Z"/></svg>