<svg xmlns="http://www.w3.org/2000/svg" width="153.537" height="289.642" viewBox="0 0 153.537 289.642"><defs><style>.a{fill:#cfcfcf;}.b{fill:#fff;}.c{fill:#3d8dcc;}.d{fill:#211715;}</style></defs><rect class="a" x="2.4" y="69.084" width="130" height="218.155" rx="14.689"/><path class="b" d="M125.438,97.705c-37.479.014-86.6.028-122.494.041H2.4v160.88h.53c38.177-.014,91.292-.029,129.47-.044V97.7Z"/><path class="c" d="M35.818,200.631a33.607,33.607,0,0,1-2.665-6.046,55.758,55.758,0,0,1-2.7-15.874c-.334-10.337-.067-19.914-.03-30.4a3.219,3.219,0,0,1,2.568-3.154c5-1.016,12.019-2.46,15.542-3.5a138.7,138.7,0,0,0,17.642-6.546,3.214,3.214,0,0,1,2.544-.04c3.255,1.355,12.025,4.951,17.552,6.586,3.523,1.043,10.54,2.487,15.542,3.5a3.219,3.219,0,0,1,2.568,3.154c.037,10.483.3,20.06-.03,30.4a58.1,58.1,0,0,1-1.667,12.328A35.046,35.046,0,0,1,86.3,212.571c-5.133,3.015-11.007,5.936-16.2,8.332a6.442,6.442,0,0,1-5.415,0A173.283,173.283,0,0,1,45.575,210.79,28.578,28.578,0,0,1,35.818,200.631Z"/><path class="d" d="M37.89,199.42c-4.5-8.035-5.04-17.307-5.167-26.3-.066-4.693-.034-9.387.01-14.08q.036-3.63.068-7.259a18.2,18.2,0,0,1,.02-3.463.888.888,0,0,1,.637-.8,16.006,16.006,0,0,1,2.557-.531q1.575-.324,3.148-.655c1.885-.4,3.768-.805,5.644-1.243a106.22,106.22,0,0,0,11.341-3.381q3.006-1.066,5.957-2.274,1.515-.618,3.019-1.264c.827-.354,1.832-1.077,2.746-.855a26.584,26.584,0,0,1,3.476,1.412q2.407.975,4.831,1.913c3.236,1.249,6.5,2.491,9.837,3.442,3.492,1,7.068,1.717,10.62,2.46q1.453.3,2.908.6a6,6,0,0,1,2.072.472c.527.385.366,1.126.369,1.7q.009,1.966.028,3.934c.041,4.71.105,9.42.1,14.13,0,8.939.3,18.319-2.943,26.809A32.858,32.858,0,0,1,85.419,210.3c-3.85,2.32-7.872,4.373-11.911,6.34q-1.413.689-2.836,1.359a10.272,10.272,0,0,1-2.633,1.066c-1.957.305-3.952-1.077-5.639-1.888-3.984-1.916-7.924-3.933-11.756-6.138a37.516,37.516,0,0,1-9.494-7.071,26.4,26.4,0,0,1-3.26-4.552c-1.545-2.674-5.694-.26-4.144,2.422a31.8,31.8,0,0,0,8.587,9.62,85.843,85.843,0,0,0,12.013,7.058q3.183,1.647,6.423,3.184c2.177,1.037,4.355,2.276,6.845,2.193s4.693-1.367,6.889-2.419q3.321-1.59,6.588-3.289a66.334,66.334,0,0,0,11.557-7.159,37.481,37.481,0,0,0,8-9.144c5.08-8.147,6.021-17.691,6.2-27.08.1-5.1.07-10.2.022-15.292-.023-2.5-.051-5-.07-7.492-.019-2.388.361-5.038-1.16-7.066-1.4-1.864-3.446-2.159-5.58-2.6-2.112-.434-4.223-.875-6.329-1.34a92.11,92.11,0,0,1-10.494-2.87c-3.625-1.262-7.2-2.665-10.758-4.107a18.1,18.1,0,0,0-4.288-1.548c-2.431-.305-4.773,1.248-6.956,2.146a132.5,132.5,0,0,1-13.469,4.741c-3.766,1.092-7.635,1.859-11.472,2.657-1.974.41-4.345.544-6,1.785-2.019,1.512-2.267,3.632-2.28,5.984-.028,5.142-.107,10.284-.125,15.426-.036,10.044-.278,20.347,2.949,29.991a38.654,38.654,0,0,0,2.908,6.619C35.255,204.538,39.4,202.121,37.89,199.42Z"/><path class="b" d="M60.033,164.536a7.524,7.524,0,0,1,2.015-5.119,7.649,7.649,0,0,1,10.7-.013c.172.176.339.359.5.55-.232-.284.174.244.215.3a9.676,9.676,0,0,1,.506.848s.321.67.176.328a7.543,7.543,0,0,1,.631,3.1c.039,3.087,4.839,3.095,4.8,0a12.158,12.158,0,0,0-7.936-11.387,12.109,12.109,0,0,0-16.4,11.387c-.039,3.09,4.761,3.092,4.8,0Z"/><path class="b" d="M50.364,168.063c0,6.166,0,13.212-.006,19.412a5.108,5.108,0,0,0,5.108,5.11c6.951,0,16.664.008,23.86.01a5.1,5.1,0,0,0,5.109-5.108c0-6.2,0-13.243.007-19.409a5.106,5.106,0,0,0-5.107-5.111l-23.86-.011A5.107,5.107,0,0,0,50.364,168.063Z"/><path class="c" d="M65.112,175.816c0,4.759,0,3.058,0,7.428a2.255,2.255,0,0,0,2.249,2.255h.069a2.256,2.256,0,0,0,2.262-2.255c0-4.372,0-2.69.006-7.42C69.152,175.825,65.8,175.816,65.112,175.816Z"/><path class="c" d="M67.4,169.93a4.627,4.627,0,0,0-4.719,4.69,4.719,4.719,0,1,0,9.438,0A4.623,4.623,0,0,0,67.4,169.93Z"/><path class="d" d="M132.4,95.3l-10.523,0-24.536.008-32.008.01L32.4,95.336l-27.327.01H2.4c-3.089,0-3.094,4.8,0,4.8q13.06.009,26.12-.009l32.593-.011,32.484-.011,25.833-.008c4.209,0,8.435.109,12.642,0,.109,0,.219,0,.328,0,3.089,0,3.094-4.8,0-4.8Z"/><path class="d" d="M2.4,261.026q24.714-.05,49.428-.017l53.19-.018,27.382-.01c3.088,0,3.094-4.8,0-4.8q-25.088.011-50.176.018l-53.133.017q-13.346,0-26.691.01c-3.088.007-3.094,4.807,0,4.8Z"/><path class="d" d="M117.71,284.839H19.7c-.829,0-1.659.006-2.488,0A12.288,12.288,0,0,1,4.8,272.444c0-.492,0-.985,0-1.477v-185c0-2.711.037-5.31,1.358-7.817a12.441,12.441,0,0,1,10.935-6.662c.576-.006,1.153,0,1.729,0h91.249c2.513,0,5.027-.02,7.541,0A12.434,12.434,0,0,1,130,83.9c.039,5.1,0,10.2,0,15.3v156.75c0,5.443.016,10.887,0,16.33a12.442,12.442,0,0,1-12.29,12.561c-3.086.036-3.094,4.836,0,4.8a17.312,17.312,0,0,0,17.09-17.223c.012-1.62,0-3.24,0-4.859V88.088c0-1.424.013-2.848,0-4.271a17.305,17.305,0,0,0-17.13-17.133c-7.926-.073-15.856,0-23.782,0H18.614c-.741,0-1.486-.019-2.226.016a17.323,17.323,0,0,0-13.71,7.888C.51,77.937,0,81.7,0,85.566V271.258c0,4.945,1.337,9.627,4.89,13.259a17.332,17.332,0,0,0,12.252,5.122c.752.007,1.5,0,2.258,0h98.31C120.8,289.639,120.8,284.839,117.71,284.839Z"/><path class="d" d="M151.07,16.836l2.025-2.493a1.971,1.971,0,0,0-1.022-3.147l-3.1-.826a1.969,1.969,0,0,1-1.46-2.01l.173-3.207a1.971,1.971,0,0,0-2.677-1.945l-3,1.156a1.969,1.969,0,0,1-2.363-.768L137.9.9a1.971,1.971,0,0,0-3.309,0l-1.745,2.7a1.969,1.969,0,0,1-2.363.768l-3-1.156a1.971,1.971,0,0,0-2.677,1.945l.173,3.207a1.969,1.969,0,0,1-1.46,2.01l-3.1.826a1.971,1.971,0,0,0-1.022,3.147l2.025,2.493a1.969,1.969,0,0,1,0,2.484L119.4,21.813a1.971,1.971,0,0,0,1.022,3.147l3.1.826a1.969,1.969,0,0,1,1.46,2.01L124.811,31a1.971,1.971,0,0,0,2.677,1.945l3-1.156a1.969,1.969,0,0,1,2.363.768l1.745,2.7a1.971,1.971,0,0,0,3.309,0l1.745-2.7a1.969,1.969,0,0,1,2.363-.768l3,1.156A1.971,1.971,0,0,0,147.682,31l-.173-3.207a1.969,1.969,0,0,1,1.46-2.01l3.1-.826a1.971,1.971,0,0,0,1.022-3.147L151.07,19.32A1.969,1.969,0,0,1,151.07,16.836Z"/><path class="d" d="M114.974,38.673q-2.409,2.052-4.774,4.156c-.383.34-4.727,3.984-4.6,4.2,0-.007.566-.23.556-.224.226-.132.314.425.091.031a4.735,4.735,0,0,0-.93-.852l-2.2-2.01q-2.1-1.913-4.2-3.819-8.966-8.13-18.068-16.106c-2.972-2.589-5.962-5.158-9-7.668a2.468,2.468,0,0,0-3.394,0,2.419,2.419,0,0,0,0,3.394c6.2,5.12,12.22,10.451,18.215,15.8q4.89,4.367,9.741,8.775,2.284,2.073,4.561,4.155c1.559,1.425,3.035,3.169,5.332,3.072a5.277,5.277,0,0,0,3.4-1.821q1.37-1.276,2.764-2.526,2.916-2.623,5.9-5.167a2.421,2.421,0,0,0,0-3.394,2.449,2.449,0,0,0-3.394,0Z"/></svg>