<svg xmlns="http://www.w3.org/2000/svg" width="342.083" height="262.292" viewBox="0 0 342.083 262.292"><defs><style>.a{fill:#4d4544;}.b{fill:#211715;}.c{fill:#7abee6;}.d{fill:#fff;}.e{fill:#74c66d;}.f{fill:#a0a0a0;}.g{fill:#645d5c;}.h{fill:#b3b3b3;}</style></defs><path class="a" d="M6.859,155.935c46.621-10.769,129.764-29.7,166.014-37.952a3.879,3.879,0,0,0,3.019-3.786q-.012-54.187-.009-108.376a3.878,3.878,0,0,0-4.5-3.834C132.4,8.32,46.568,22.632,5.33,29.522A3.869,3.869,0,0,0,2.1,33.347c0,15.395.009,81.066.01,118.811A3.876,3.876,0,0,0,6.859,155.935Z"/><path class="b" d="M7.391,157.864q27.9-6.446,55.825-12.821,30.639-7.011,61.283-13.994c16.224-3.7,32.52-7.168,48.692-11.089a6.034,6.034,0,0,0,4.7-5.763c.17-3.476,0-7.006,0-10.488q0-10.613,0-21.226,0-21.35,0-42.7,0-10.488,0-20.976V8.068a11.783,11.783,0,0,0-.409-4.369A5.884,5.884,0,0,0,174.89.693c-2.04-1.135-4.162-.614-6.324-.262l-5.12.835q-5.849.955-11.7,1.917-28.388,4.664-56.766,9.386-29.871,4.959-59.739,9.942Q22.867,24.575,10.49,26.642c-1.739.291-3.48.569-5.216.872A5.955,5.955,0,0,0,.183,32.463,49.21,49.21,0,0,0,.1,39.679q0,24.727,0,49.457,0,29.6,0,59.208c0,2.121-.318,4.513.638,6.472a5.986,5.986,0,0,0,6.648,3.048c2.527-.468,1.457-4.324-1.064-3.857-2.41.446-2.221-2.359-2.222-3.881V130.238q0-14.8,0-29.6,0-26.567,0-53.133,0-4.376,0-8.752V35.314c0-1-.239-2.381.443-3.182a3.436,3.436,0,0,1,2.277-.841l2.7-.452,5.464-.912,11.7-1.953q28.182-4.7,56.367-9.389,28.74-4.777,57.484-9.524,11.859-1.956,23.72-3.9l5.14-.838c1.4-.228,3.434-.974,4.283.631.537,1.017.205,2.756.205,3.86V24.3q0,41.453.008,82.905,0,2.5,0,5c0,1.112.305,2.507-.586,3.36a4.378,4.378,0,0,1-2.15.764l-2.348.535-10.47,2.383q-12.355,2.811-24.71,5.627-29.364,6.692-58.724,13.4-28.515,6.518-57.021,13.072-5.778,1.331-11.556,2.665C3.82,154.586,4.881,158.443,7.391,157.864Z"/><path class="c" d="M28.529,62.393l5.336-.817a2.871,2.871,0,0,0,1.775-.969,3.053,3.053,0,0,0,.727-1.952,2.381,2.381,0,0,0-.759-1.752,2.315,2.315,0,0,0-1.789-.56l-5.336.812a2.752,2.752,0,0,0-1.711.913,2.934,2.934,0,0,0-.691,1.9,2.612,2.612,0,0,0,.723,1.806,2.126,2.126,0,0,0,1.725.624Z"/><path class="c" d="M43.81,60.37a3.4,3.4,0,0,0,2.918-3.291,2.622,2.622,0,0,0-2.967-2.561,3.266,3.266,0,0,0-2.888,3.173A2.69,2.69,0,0,0,43.81,60.37Z"/><path class="c" d="M55.076,58.3l6.838-1.062a3.268,3.268,0,0,0,1.935-.993,2.948,2.948,0,0,0,.8-1.956,2.257,2.257,0,0,0-.817-1.743,2.617,2.617,0,0,0-1.946-.533q-3.444.537-6.843,1.064a3.247,3.247,0,0,0-1.9.95,2.815,2.815,0,0,0-.773,1.908,2.4,2.4,0,0,0,.8,1.782,2.48,2.48,0,0,0,1.91.583Z"/><path class="c" d="M72.021,55.666l3.4-.529a2.333,2.333,0,0,0,1.072-.347,2.44,2.44,0,0,0,.895-.651,2.309,2.309,0,0,0,.573-.918,2.024,2.024,0,0,0,.236-1.042,2.236,2.236,0,0,0-.824-1.745A2.666,2.666,0,0,0,75.4,49.9l-3.4.532a3.615,3.615,0,0,0-1.959.964,2.195,2.195,0,0,0-.569.891,1.961,1.961,0,0,0-.233,1.026,2.347,2.347,0,0,0,.821,1.778,2.592,2.592,0,0,0,1.964.571Z"/><path class="d" d="M88.01,44.83a9.563,9.563,0,0,0-1.619,6.191,9.679,9.679,0,0,0,.894,3.419,10.166,10.166,0,0,0,1.648,2.285,2.547,2.547,0,0,0,1.974.6,3.2,3.2,0,0,0,1.97-1.024,3.077,3.077,0,0,0,.813-2.032,2.756,2.756,0,0,0-.818-1.827c-.231-.258.179.2.2.227a2.547,2.547,0,0,0-.184-.222c-.1-.131-.206-.264-.3-.4a5.715,5.715,0,0,1-.485-.841l.282.606a6.307,6.307,0,0,1-.451-1.6c.034.229.067.46.1.691a8.955,8.955,0,0,1-.018-2.453l-.1.7a7.039,7.039,0,0,1,.476-1.645c-.094.215-.187.431-.281.647a10.037,10.037,0,0,1,.729-1.333A2.221,2.221,0,0,0,91.834,43.5,3.332,3.332,0,0,0,88.01,44.83Z"/><path class="d" d="M16.131,55.993a10.629,10.629,0,0,0-1.258,6.036,12.465,12.465,0,0,0,.732,3.5,11.527,11.527,0,0,0,1.341,2.411,1.889,1.889,0,0,0,1.615.694,2.385,2.385,0,0,0,1.623-.992,3.462,3.462,0,0,0,.665-2.061,3.253,3.253,0,0,0-.7-1.888c-.194-.269.15.2.167.238a2.275,2.275,0,0,0-.154-.232c-.088-.136-.173-.274-.253-.416a6.708,6.708,0,0,1-.408-.865c.079.206.159.413.238.621a7.711,7.711,0,0,1-.384-1.629q.044.347.088.7a10.854,10.854,0,0,1-.032-2.449q-.038.345-.077.694a7.675,7.675,0,0,1,.382-1.613c-.076.209-.152.418-.227.629a9.485,9.485,0,0,1,.594-1.289,2.377,2.377,0,0,0-.857-3.24,2.411,2.411,0,0,0-3.1,1.153Z"/><path class="d" d="M101.857,45.716c-.564-.608-.135-.145-.02,0q.151.189.29.388a5.82,5.82,0,0,1,.47.825c-.092-.2-.185-.394-.278-.591a6.392,6.392,0,0,1,.481,1.706l-.1-.688a9.192,9.192,0,0,1,0,2.43l.1-.719a6.726,6.726,0,0,1-.425,1.519l.279-.67a11.576,11.576,0,0,1-.776,1.461,2.574,2.574,0,0,0,.99,3.634,3.03,3.03,0,0,0,3.768-1.391,10.8,10.8,0,0,0,1.638-6.062,8.93,8.93,0,0,0-.594-3.08,9.038,9.038,0,0,0-1.918-2.8,2.621,2.621,0,0,0-1.95-.5,3.37,3.37,0,0,0-1.957.956A2.711,2.711,0,0,0,101.046,44a2.566,2.566,0,0,0,.811,1.715Z"/><path class="d" d="M132.828,54.243a12.39,12.39,0,0,0-1.516,6.837,12.022,12.022,0,0,0,.8,3.718,10.963,10.963,0,0,0,1.492,2.459,2.131,2.131,0,0,0,1.787.668,2.706,2.706,0,0,0,1.778-1.037,3.5,3.5,0,0,0,.737-2.127,3.309,3.309,0,0,0-.724-1.97c-.206-.282.159.214.177.249a2.8,2.8,0,0,0-.164-.243c-.093-.143-.183-.288-.268-.438a6.844,6.844,0,0,1-.431-.92c.083.221.167.441.25.662a8,8,0,0,1-.4-1.749q.043.377.088.753a11.853,11.853,0,0,1-.005-2.676c-.031.256-.061.511-.092.767a9,9,0,0,1,.435-1.793l-.255.7a11.749,11.749,0,0,1,.66-1.447,2.869,2.869,0,0,0-.886-3.766,2.633,2.633,0,0,0-3.466,1.348Z"/><path class="d" d="M142.817,56.151c-.493-.69-.118-.165-.018,0q.133.213.253.436a7.456,7.456,0,0,1,.409.919c-.08-.218-.161-.437-.242-.655a8.526,8.526,0,0,1,.416,1.873l-.084-.749a12.227,12.227,0,0,1,0,2.622c.03-.256.059-.512.089-.768a8.414,8.414,0,0,1-.376,1.615l.246-.708a12.733,12.733,0,0,1-.685,1.536c-.689,1.336-.263,3.262.857,3.861,1.2.638,2.561.069,3.278-1.359a13.075,13.075,0,0,0,1.419-6.375,12.33,12.33,0,0,0-.5-3.364,11.43,11.43,0,0,0-1.644-3.184,2.009,2.009,0,0,0-1.688-.661,2.586,2.586,0,0,0-1.711.981,3.347,3.347,0,0,0-.718,2.054,3.294,3.294,0,0,0,.706,1.929Z"/><path class="d" d="M118.474,38.376c-2.164.112-3.738,2.087-4.3,3.95-.187.617-.306,1.252-.47,1.88-.126.487.313-.541.049-.1a1.571,1.571,0,0,1-.228.386l.248-.346q-.228.229.074-.042c.21-.167.229-.19.059-.071.46-.212.552-.268.286-.185a3.008,3.008,0,0,0-1.95,3.095,2.407,2.407,0,0,0,2.659,2.035,1.239,1.239,0,0,1-.673-.077c-.23-.094-.272-.094-.092-.016-.343-.248-.437-.308-.283-.183a1.251,1.251,0,0,1,.147.134c.006-.009-.407-.58-.083-.06.059.1.192.479.065.081-.141-.444.04.127.072.216.046.131.088.262.132.394.1.314.21.628.338.934a5.3,5.3,0,0,0,1.5,2.216,3.943,3.943,0,0,0,1.671.812,3.885,3.885,0,0,0,1.945-.181,3.124,3.124,0,0,0,1.595-1.437,3,3,0,0,0,.273-2.143,2.452,2.452,0,0,0-3.278-1.549,1.794,1.794,0,0,1,1.291.007c-.381-.158.325.318.141.1-.3-.361.068.013.079.118a2.434,2.434,0,0,0-.227-.4c.145.346.181.428.109.243-.03-.076-.058-.154-.085-.231-.045-.13-.088-.261-.13-.392-.094-.288-.188-.575-.3-.853a5.3,5.3,0,0,0-1.378-2.139,3.918,3.918,0,0,0-2.815-.894q.354,2.517.707,5.13c1.839-.546,2.972-2.5,3.393-4.189.153-.611.27-1.216.456-1.816.1-.331-.3.568-.051.168.277-.446-.448.453-.08.093s-.547.367-.124.111l-.408.222c-.51.093-.621.126-.343.11a3.087,3.087,0,0,0,2.678-2.894,2.309,2.309,0,0,0-2.665-2.239Z"/><path class="d" d="M46.059,77.846l5.328-.893a3,3,0,0,0,1.887-1.113,3.7,3.7,0,0,0,.773-2.249,2.947,2.947,0,0,0-.8-2.052,2.313,2.313,0,0,0-1.9-.676l-5.331.863A2.887,2.887,0,0,0,44.168,72.8a3.669,3.669,0,0,0-.749,2.233,3.134,3.134,0,0,0,.78,2.1,2.2,2.2,0,0,0,1.86.71Z"/><path class="d" d="M63.046,75.006l2.561-.427a2.072,2.072,0,0,0,1.058-.381,2.394,2.394,0,0,0,.883-.728,2.649,2.649,0,0,0,.565-1.038,2.607,2.607,0,0,0,.233-1.187q-.052-.395-.1-.786a2.655,2.655,0,0,0-.715-1.238l-.56-.4a2.357,2.357,0,0,0-1.391-.253c-.836.111-1.71.276-2.563.413a2.1,2.1,0,0,0-1.053.37,2.329,2.329,0,0,0-.875.71,2.564,2.564,0,0,0-.559,1.023,2.6,2.6,0,0,0-.228,1.185c.034.263.068.528.1.793a2.762,2.762,0,0,0,.709,1.266l.555.416a2.323,2.323,0,0,0,1.381.265Z"/><path class="e" d="M81.127,72.005q5.538-.915,11.081-1.825a3.358,3.358,0,0,0,2.776-3.27A2.54,2.54,0,0,0,92.2,64.289q-5.54.885-11.091,1.776a3.315,3.315,0,0,0-2.776,3.254,2.586,2.586,0,0,0,2.793,2.686Z"/><path class="e" d="M104.658,68.145l1.869-.3a2.12,2.12,0,0,0,1.055-.369,2.387,2.387,0,0,0,.881-.7,2.564,2.564,0,0,0,.566-1,2.483,2.483,0,0,0,.236-1.15q-.048-.382-.1-.763a2.543,2.543,0,0,0-.7-1.2q-.276-.2-.553-.392a2.373,2.373,0,0,0-1.382-.246c-.608.08-1.246.2-1.871.3a2.181,2.181,0,0,0-1.06.362,2.391,2.391,0,0,0-.888.694,2.5,2.5,0,0,0-.57.995,2.45,2.45,0,0,0-.238,1.15c.033.255.065.511.1.767a2.624,2.624,0,0,0,.709,1.221q.279.2.557.4a2.421,2.421,0,0,0,1.389.251Z"/><path class="e" d="M119.467,65.75l5.7-.913a2.959,2.959,0,0,0,1.851-1.043,3.439,3.439,0,0,0,.768-2.121,2.753,2.753,0,0,0-.756-1.951,2.262,2.262,0,0,0-1.847-.648q-2.828.441-5.706.893A3.071,3.071,0,0,0,117.587,61a3.369,3.369,0,0,0-.791,2.122,2.771,2.771,0,0,0,.782,1.971,2.32,2.32,0,0,0,1.889.653Z"/><path class="d" d="M33.936,110.829c1.468-.2,2.881-2.161,2.8-4.209s-1.276-3.638-2.85-3.433c-1.468.191-2.843,2.129-2.762,4.191s1.241,3.671,2.814,3.451Z"/><path class="d" d="M44.33,108.281l2.126-.435a1.841,1.841,0,0,0,1.011-.432,2.437,2.437,0,0,0,.844-.814,3.115,3.115,0,0,0,.54-1.155,3.32,3.32,0,0,0,.22-1.323l-.1-.877a3.15,3.15,0,0,0-.689-1.384l-.538-.451a1.963,1.963,0,0,0-1.331-.28c-.692.112-1.42.278-2.127.417a1.8,1.8,0,0,0-1,.422,2.355,2.355,0,0,0-.831.807,3.1,3.1,0,0,0-.528,1.157,3.376,3.376,0,0,0-.214,1.331l.1.885a3.188,3.188,0,0,0,.675,1.4l.529.455a1.947,1.947,0,0,0,1.316.277Z"/><path class="d" d="M56.774,105.748l6.1-1.233a3.134,3.134,0,0,0,1.925-1.237,4.177,4.177,0,0,0,.791-2.434,3.259,3.259,0,0,0-.813-2.209,2.229,2.229,0,0,0-1.936-.7q-3.069.594-6.106,1.183a3.02,3.02,0,0,0-1.9,1.224,4.267,4.267,0,0,0-.773,2.456,3.385,3.385,0,0,0,.8,2.244,2.144,2.144,0,0,0,1.907.706Z"/><path class="f" d="M75.827,101.919q6.267-1.249,12.564-2.493a3.622,3.622,0,0,0,2.768-3.572c-.066-1.643-1.225-3.1-2.779-2.8q-6.291,1.191-12.575,2.393a3.617,3.617,0,0,0-2.753,3.614c.07,1.68,1.227,3.171,2.775,2.862Z"/><path class="d" d="M111.865,95.207a3.913,3.913,0,0,0,3.027-3.873c-.07-1.861-1.317-3.278-3.018-3.059a3.894,3.894,0,0,0-3.045,3.867c.072,1.875,1.336,3.3,3.036,3.065Z"/><path class="d" d="M132.127,91.312a3.735,3.735,0,0,0,2.853-3.739c-.063-1.813-1.23-3.206-2.834-3.009A3.737,3.737,0,0,0,129.26,88.3c.065,1.826,1.263,3.222,2.867,3.01Z"/><path class="d" d="M141.734,89.5a3.626,3.626,0,0,0,2.728-3.666c-.061-1.788-1.173-3.174-2.708-2.992a3.636,3.636,0,0,0-2.767,3.667c.062,1.8,1.212,3.188,2.747,2.991Z"/><path class="d" d="M120.736,93.124l2.808-.538a1.974,1.974,0,0,0,1.013-.4,2.382,2.382,0,0,0,.844-.742,2.769,2.769,0,0,0,.543-1.051,2.808,2.808,0,0,0,.228-1.2l-.091-.8a2.62,2.62,0,0,0-.669-1.254,2.14,2.14,0,0,0-1.853-.655l-2.809.516a1.993,1.993,0,0,0-1.024.394,2.387,2.387,0,0,0-.859.742,4.17,4.17,0,0,0-.786,2.269l.094.8a2.647,2.647,0,0,0,.683,1.264,2.161,2.161,0,0,0,1.878.645Z"/><path class="d" d="M98.86,86.758a15.134,15.134,0,0,0-1.721,8.131,13.74,13.74,0,0,0,.922,4.256,11.87,11.87,0,0,0,1.729,2.786,2.244,2.244,0,0,0,1.945.64,3.125,3.125,0,0,0,1.94-1.2,3.882,3.882,0,0,0,.8-2.333,3.459,3.459,0,0,0-.8-2.105c-.23-.3.13.194.175.235a1.615,1.615,0,0,1-.2-.28q-.15-.219-.288-.45c-.125-.208-.516-.721-.5-1,0,.085.26.766.113.26-.027-.09-.057-.179-.083-.271-.054-.189-.1-.382-.141-.578a2.3,2.3,0,0,1-.121-.717c-.02.043.07.772.039.294-.009-.158-.025-.314-.035-.472a13.9,13.9,0,0,1-.008-1.646c.008-.121.019-.242.028-.363.036-.494-.048.306-.037.315a2.94,2.94,0,0,1,.138-.764q.073-.332.169-.658a2.358,2.358,0,0,1,.127-.4c-.037.072-.27.708-.1.3.2-.491.42-.968.665-1.437.772-1.477.3-3.523-.985-4.125a2.9,2.9,0,0,0-3.77,1.59Z"/><path class="d" d="M148.948,81.442c-.045-.068-.308-.494-.131-.194.059.1.121.2.18.3.091.159.179.322.261.49q.136.278.254.571a2.6,2.6,0,0,0,.1.263c-.033.006-.2-.667-.1-.267a12.768,12.768,0,0,1,.278,1.255,3.865,3.865,0,0,1,.054.405c0-.106-.056-.674-.034-.261.015.275.032.549.038.826.01.488-.01.972-.04,1.462-.027.433,0-.291.036-.331a1.277,1.277,0,0,0-.043.294c-.035.212-.077.424-.126.633-.043.182-.1.358-.145.539-.089.34.256-.713.085-.271-.033.087-.064.176-.1.263-.159.412-.342.812-.532,1.207-.664,1.383-.252,3.342.829,3.924,1.153.62,2.468.008,3.158-1.461a15.1,15.1,0,0,0,1.453-6.986,14.387,14.387,0,0,0-.522-3.693,12.938,12.938,0,0,0-1.672-3.467,1.854,1.854,0,0,0-1.625-.68,2.467,2.467,0,0,0-1.649,1.034,3.7,3.7,0,0,0-.692,2.147,3.543,3.543,0,0,0,.682,2Z"/><path class="d" d="M160.831,74.684h0a1.387,1.387,0,0,0-.822.329,1.911,1.911,0,0,0-.693.665,2.628,2.628,0,0,0-.448.974,2.93,2.93,0,0,0-.188,1.132c.026.254.052.507.077.761a2.87,2.87,0,0,0,.556,1.216l.436.406a1.6,1.6,0,0,0,1.081.279h0a1.387,1.387,0,0,0,.817-.335,1.878,1.878,0,0,0,.677-.666,2.632,2.632,0,0,0,.433-.97,2.988,2.988,0,0,0,.179-1.126l-.074-.756a2.912,2.912,0,0,0-.538-1.214l-.425-.407a1.564,1.564,0,0,0-1.068-.288Z"/><path class="d" d="M158.952,85.258l.1,2.822a2.646,2.646,0,0,0,.186,1.095,2.038,2.038,0,0,0,.447.879,1.391,1.391,0,0,0,.692.513,1.178,1.178,0,0,0,.823.148l.564-.172a2.469,2.469,0,0,0,.93-.855l.327-.622a3.832,3.832,0,0,0,.284-1.488c-.016-.917-.068-1.869-.1-2.8a2.709,2.709,0,0,0-.18-1.089,2.074,2.074,0,0,0-.432-.879,1.38,1.38,0,0,0-.677-.523,1.163,1.163,0,0,0-.815-.159l-.567.165a2.477,2.477,0,0,0-.947.848c-.113.208-.226.415-.339.624a3.891,3.891,0,0,0-.3,1.5Z"/><path class="d" d="M243.65,54.119a32.922,32.922,0,0,0-15.108-5.946,45.321,45.321,0,0,0-1.5,10.662c-.644,6.154-1.513,14.692-7.383,17.327a5.761,5.761,0,0,0-2.814,2.435c-1.58,2.97.962,4.544,2.47,6.434a9.468,9.468,0,0,1,1.846,4.162,58.8,58.8,0,0,0,.59,8.98,24.927,24.927,0,0,0,1.565,6.109,11.812,11.812,0,0,0,6.037,6.463c4.542,2.056,10.886,3.141,15.106,2.331a2.055,2.055,0,0,1,2.332,1.389,54.571,54.571,0,0,1,2.844,6.87l1.215,3.025a59.9,59.9,0,0,1,14.858-6.855,160.155,160.155,0,0,1,17.589-3.711l-4.2-3.251c-5.346-4.138-11.188-12.989-12.347-18.307,0,0-.045-.2-.116-.551a15,15,0,0,0,5.158-9.378c.433-2.517-.12-5.707-1.96-7.423a5.889,5.889,0,0,0-4.855-1.365,6.853,6.853,0,0,0-3.222,1.29,14.91,14.91,0,0,0-1.741,1.5c-2.1-5.183-2.507-7.567-5.01-11.147A51.431,51.431,0,0,0,243.65,54.119Z"/><path class="g" d="M261.755,74.809a14.91,14.91,0,0,0-1.741,1.5c-2.1-5.183-2.507-7.567-5.01-11.147-5.517-7.258-15.028-16.038-27.179-17.059a32.021,32.021,0,0,1,5.637-13.4,28.732,28.732,0,0,1,4.815-5.3,29.5,29.5,0,0,1,8.325-5.6,47.738,47.738,0,0,1,30.221-3.643c11.288,2.163,23.467,9.67,29.129,20.707,5.871,4.763,9.368,17.9,9.058,27.267-.542,16.365-9.908,26.786-16.195,32.3-4.079,3.577-11.43,8.257-12.312,13.558a12.255,12.255,0,0,0-.015,2.272l-7.391-5.722c-5.346-4.138-11.188-12.989-12.347-18.307,0,0-.045-.2-.116-.551a15,15,0,0,0,5.158-9.378c.433-2.517-.12-5.707-1.96-7.423a5.889,5.889,0,0,0-4.855-1.365A6.853,6.853,0,0,0,261.755,74.809Z"/><path class="b" d="M233.439,51.235a38.849,38.849,0,0,1,15.989,10.477,32.251,32.251,0,0,1,5.158,6.548,68.277,68.277,0,0,1,3.3,8.088,2.061,2.061,0,0,0,2.46,1.4,2.015,2.015,0,0,0,1.4-2.46,76.466,76.466,0,0,0-3.7-9.044,36.392,36.392,0,0,0-5.784-7.357A43.01,43.01,0,0,0,234.5,47.378c-2.46-.78-3.512,3.081-1.064,3.857Z"/><path class="b" d="M262.328,76.891c1.877-1.59,5.147-2.263,6.7.141,1.409,2.183.953,5.035.2,7.356-1.576,4.857-5.687,7.645-10.431,8.97-2.476.692-1.424,4.553,1.063,3.857,5.084-1.42,9.8-4.334,12.186-9.2a16.542,16.542,0,0,0,1.869-8c-.177-2.993-1.4-6.223-4.226-7.659-3.494-1.778-7.335-.707-10.187,1.71a2.017,2.017,0,0,0,0,2.828,2.042,2.042,0,0,0,2.829,0Z"/><path class="b" d="M229.831,67.254c-.832,1.724-1.184,5.947,2.015,6.836,4.312.679,5.383-4.32,4.33-6.926C235.313,65.03,231.958,63.651,229.831,67.254Z"/><path class="b" d="M251.562,120.8c-.571-1.729-1.244-3.421-1.985-5.085-.238-.535-.486-1.065-.74-1.593-.07-.145-.132-.3-.212-.437-.211-.363.272.666-.037-.067-1.552-3.677-5.577-2.139-8.66-2.316a27.3,27.3,0,0,1-9.566-2.287,10.537,10.537,0,0,1-5.53-6.323,38.048,38.048,0,0,1-1.654-11.165,13.54,13.54,0,0,0-.672-4.854,13.364,13.364,0,0,0-2.808-4.215c-.677-.73-1.616-1.537-1.238-2.618.5-1.428,2.125-1.8,3.267-2.525a13.4,13.4,0,0,0,5.027-6.612c2.7-6.785,1.8-14.3,3.53-21.289.616-2.5-3.24-3.566-3.857-1.064-1.582,6.408-1.019,13.124-2.9,19.469-.69,2.32-1.8,4.806-3.943,6.12-1.423.871-2.837,1.436-3.9,2.81a5.771,5.771,0,0,0-1.2,4.8c.733,3.083,4.179,4.526,4.655,7.762.234,1.589.059,3.324.18,4.935a54.019,54.019,0,0,0,.761,6.013,18.258,18.258,0,0,0,4.547,9.6c2.244,2.282,5.32,3.46,8.35,4.292a29.149,29.149,0,0,0,11.376.956c.673-.086.423-.258.733.427.154.34.326.672.485,1.009a46.622,46.622,0,0,1,2.13,5.321c.8,2.432,4.668,1.39,3.857-1.064Z"/><path class="b" d="M306.871,44.782c3.489,5,5.207,11.357,5.877,17.359a40.587,40.587,0,0,1-2.381,19.054,42.751,42.751,0,0,1-8.325,13.276c-3.385,3.737-7.416,6.624-11.179,9.944-2.469,2.179-4.919,4.717-6,7.9-.956,2.821-.282,6.338.247,9.185.471,2.528,4.326,1.457,3.857-1.063a33.138,33.138,0,0,1-.48-4.143,5.84,5.84,0,0,1,.284-3.058c.977-2.573,3.307-4.6,5.334-6.356,3.8-3.286,7.784-6.216,11.135-10,8.169-9.214,12.7-21.235,11.618-33.612-.618-7.049-2.434-14.628-6.536-20.509-1.462-2.1-4.931-.1-3.454,2.019Z"/><path class="b" d="M228.107,90.02c-.574.181-1.153.346-1.739.483q-.466.109-.937.194c-.133.023-.267.044-.4.066-.415.068.46-.051-.067.009a12.737,12.737,0,0,1-1.713.081c-.282-.006-.56-.031-.841-.051-.431-.031.415.075.02.006-.169-.03-.337-.058-.5-.093a2,2,0,0,0-1.064,3.857,16.539,16.539,0,0,0,8.31-.7,2,2,0,1,0-1.063-3.857Z"/><path class="b" d="M264.821,92.768a31.1,31.1,0,0,0,4.806,10.073,38.971,38.971,0,0,0,8.056,9.116,2.063,2.063,0,0,0,2.828,0,2.012,2.012,0,0,0,0-2.828,35.6,35.6,0,0,1-7.43-8.307,27.792,27.792,0,0,1-4.4-9.117c-.568-2.51-4.425-1.448-3.857,1.063Z"/><path class="b" d="M229.609,49.447A32.533,32.533,0,0,1,235.8,34.874a33.414,33.414,0,0,1,14.249-10.4,46,46,0,0,1,37.123,1.312,39.524,39.524,0,0,1,15.157,12.866c1.436,2.119,4.9.12,3.454-2.018-7.559-11.152-20.261-17.729-33.474-19.152-13.734-1.478-28.841,2.755-38.234,13.256a35.452,35.452,0,0,0-8.318,17.645,2.058,2.058,0,0,0,1.4,2.46,2.016,2.016,0,0,0,2.46-1.4Z"/><path class="b" d="M219.832,175.026c-6.827-1.674-13.668-3.291-20.506-4.921-1.564-.373-3.137-.838-4.727-1.082a13.088,13.088,0,0,0-5.386.388l-5.2,1.359q-15.243,3.984-30.486,7.964-17.325,4.525-34.653,9.042-7.194,1.875-14.389,3.746l-5.8,1.5a12.241,12.241,0,0,0-2.831.841,3.273,3.273,0,0,0-1.358,4.187c.726,1.577,2.308,1.852,3.823,2.265l4.067,1.108q4.967,1.353,9.932,2.7,10.784,2.931,21.569,5.854L139,211.37c2.488.673,3.549-3.184,1.064-3.858q-19.7-5.335-39.393-10.7l-1.841-.5a6.141,6.141,0,0,0-.8-.218c-.05-.007-.354-.133-.388-.106.126-.1.565.667.524.887-.145.783-.8.541-.095.442a4.808,4.808,0,0,0,.512-.132l1.255-.326q2.739-.71,5.478-1.422,6.876-1.786,13.751-3.579,16.57-4.319,33.14-8.647,15.052-3.93,30.1-7.863l5.567-1.455c2.309-.6,4.465-1.328,6.876-.768,6.573,1.526,13.131,3.122,19.689,4.706q2.163.522,4.322,1.051c2.5.612,3.567-3.244,1.064-3.857Z"/><path class="d" d="M196.052,182.911c-.958.095-1.915.2-2.868.337a49.015,49.015,0,0,1-4.975.528,2.868,2.868,0,0,1-2.563-1.284,2.07,2.07,0,0,1-.059-2.191,7.019,7.019,0,0,1,3.328-2.764c.351-.143.775-.321,1.239-.5l-.178-.458c-.729-1,.26-2.347,1.253-3.084a21.131,21.131,0,0,1,12.642-3.846,35.1,35.1,0,0,1,12.546,2.648c-1.832,6.566-3.551,13.634-5.447,20.755l-.543-.014a12.029,12.029,0,0,1-8.222-3.592l1.2-2.238c.752.372,1.616-.572,1.423-1.34s-.964-1.273-1.678-1.7a19.409,19.409,0,0,0-4.185-1.514C198,182.732,197.023,182.815,196.052,182.911Z"/><path class="b" d="M217.458,170.569c-5.755-2.286-11.927-3.547-18.1-2.537-3.689.6-14.22,4.013-11.106,9.554,1.262,2.245,4.718.231,3.454-2.018-.043.4-.023.472.062.228a1.32,1.32,0,0,1,.347-.432,6.266,6.266,0,0,1,1.163-.857,16.937,16.937,0,0,1,2.886-1.48,20.32,20.32,0,0,1,6.238-1.34,33.065,33.065,0,0,1,14,2.739,2.015,2.015,0,0,0,2.46-1.4,2.047,2.047,0,0,0-1.4-2.46Z"/><path class="b" d="M196.8,173.3a45.934,45.934,0,0,0-7.638,1.99c-2.506,1.011-5.93,2.937-5.858,6.1a4.527,4.527,0,0,0,2.3,3.739,6.793,6.793,0,0,0,4.176.544c1.5-.139,2.993-.382,4.491-.565.782-.095,1.565-.175,2.349-.249q.543-.051,1.087-.1l.724-.063.362-.031q.374-.012-.021-.045c.044.061-.343-.108-.1-.01.078.032.172.04.253.064.23.068.46.134.688.208.534.172,1.06.365,1.585.563a5.472,5.472,0,0,1,.957.445,8.72,8.72,0,0,0,.728.506c.109-.018-.25.2,0-.145.288-.394-.171-1.371,1.063-.972-2.456-.793-3.507,3.068-1.064,3.857a3.128,3.128,0,0,0,3.882-2.268c.421-1.725-.675-3.114-2-4.05a12.551,12.551,0,0,0-2.934-1.392,10.84,10.84,0,0,0-2.536-.739,22.13,22.13,0,0,0-4.66.378c-1.571.182-3.133.442-4.707.593-.475.046-2.375.474-2.586-.235-.177-.594,1.468-1.606,1.916-1.842,2.642-1.394,5.73-1.8,8.613-2.423,2.515-.543,1.45-4.4-1.064-3.857Z"/><path class="b" d="M211.176,191.031c-.384.013-.769.011-1.153-.013-.215-.013-.43-.038-.645-.058-.282-.026.381.066.1.013-.094-.018-.189-.03-.284-.047a12.959,12.959,0,0,1-2.284-.649c-.262-.1.015-.038.078.037-.044-.052-.2-.089-.263-.118-.175-.081-.347-.166-.518-.255-.34-.178-.673-.372-1-.582q-.242-.156-.475-.326c-.05-.036-.39-.275-.143-.1.224.155-.036-.034-.078-.069a11.79,11.79,0,0,1-.9-.832,2,2,0,0,0-2.829,2.829,14.085,14.085,0,0,0,10.385,4.173,2,2,0,0,0,0-4Z"/><path class="d" d="M176.011,200.2a32.444,32.444,0,0,0-5.718-11.593,3.65,3.65,0,0,0-1.906-1.38,4.031,4.031,0,0,0-2.765.11,3.789,3.789,0,0,0-2.414,2.569,8.523,8.523,0,0,0-6.413-4.508,22.611,22.611,0,0,0-7.242.142c-2.161.3-4.531,1.653-4.941,3a10.052,10.052,0,0,0-1.629.4,9.84,9.84,0,0,0-1.707.75q-2.008,1.155-3.969,2.392a2.8,2.8,0,0,0-1.427,2.624l.16.816a10.875,10.875,0,0,0-2.895,1.952,4.761,4.761,0,0,0-1.517,2.478,2.4,2.4,0,0,0,1.064,2.547l1.795.95a12.763,12.763,0,0,0-.844,1.085c-1.081,1.546-1.175,3.136-.578,3.96a3.129,3.129,0,0,0,2.515,1.11c.887-.043,5.014-1.592,6.526-1.951a23.8,23.8,0,0,0,18.775,7.08l1.323.474A40.25,40.25,0,0,1,176.011,200.2Z"/><path class="b" d="M177.362,197.614a42.809,42.809,0,0,0-4.876-9.377,8.707,8.707,0,0,0-2.027-2.208,5.852,5.852,0,0,0-2.842-.956,6.183,6.183,0,0,0-5.228,2.174,2.055,2.055,0,0,0,0,2.829,2.022,2.022,0,0,0,2.829,0c.105-.135.215-.252.331-.377.32-.346-.294.155.115-.1.286-.179.583-.328.878-.491.21-.117-.253.053.108-.026.447-.1-.237-.034.2-.039.194,0,.382,0,.576.01-.37-.011.182.039.242.053s.526.151.275.064c-.23-.08.236.146.29.169.183.077-.18-.2.068.046.123.122.244.241.362.367.374.4-.208-.307.113.143.1.145.209.289.311.435.195.277.384.559.569.843a41.6,41.6,0,0,1,2.2,3.842q.489.962.935,1.946c.078.174.156.347.232.522.01.024.244.586.089.2.133.328.266.657.393.989a2.047,2.047,0,0,0,2.461,1.4,2.021,2.021,0,0,0,1.4-2.46Z"/><path class="b" d="M164.523,188.123c-2.112-3.251-5.767-4.725-9.528-4.937a28.083,28.083,0,0,0-6.117.448,9.677,9.677,0,0,0-5.033,2.49c-1.86,1.787.971,4.613,2.828,2.828a6.226,6.226,0,0,1,3.412-1.484,24.744,24.744,0,0,1,4.581-.3c2.386.087,5.035.866,6.4,2.97,1.4,2.151,4.862.149,3.454-2.018Z"/><path class="b" d="M152.135,187.1c-3.376-.778-7.04-1.179-10.339.15a31.077,31.077,0,0,0-4.639,2.564c-1.721,1.064-3.568,2.608-3.278,4.888a2.066,2.066,0,0,0,2,2,2.011,2.011,0,0,0,2-2,1.618,1.618,0,0,1-.028-.46c-.023.134-.038.158.041.037a2.112,2.112,0,0,1,.412-.472c.106-.095.11-.1.012,0l.246-.155c.167-.095.327-.2.491-.306q.553-.344,1.112-.681c.7-.424,1.4-.852,2.121-1.25a4.648,4.648,0,0,1,1.187-.536,11.229,11.229,0,0,1,4-.475c.3.007.6.021.9.046.128.01.256.024.383.037.212.022-.215-.044.152.023.725.133,1.444.284,2.163.449a2,2,0,1,0,1.063-3.857Z"/><path class="b" d="M145.671,191.746c-3.966.022-8.331.548-11.779,2.659a9.105,9.105,0,0,0-4.041,4.471,4.509,4.509,0,0,0,1.831,5.349c2.216,1.322,4.23-2.135,2.019-3.454-.29-.173.015-.057.008.053.057.09.054.086-.008-.012a1.172,1.172,0,0,1-.092-.157q-.1-.189.024.053l-.048-.179c-.073.209.1.139,0-.023v-.187c-.039.2-.04.218-.005.053.012-.052.095-.358.072-.3s.165-.3.2-.367c0,0,.185-.291.084-.152a7.866,7.866,0,0,1,3.209-2.358,21.444,21.444,0,0,1,8.525-1.453,2,2,0,0,0,0-4Z"/><path class="b" d="M136.023,199.483c-2.918,2.011-6.643,5.818-4.876,9.676a4.813,4.813,0,0,0,4.823,2.4,17.563,17.563,0,0,0,3.086-.853c1.2-.393,2.389-.838,3.614-1.134a2.018,2.018,0,0,0,1.4-2.46,2.042,2.042,0,0,0-2.46-1.4c-1.908.46-3.732,1.233-5.621,1.761-.169.047-.338.093-.509.131-.067.015-.138.023-.205.043-.2.058.605-.016.308-.043-.095-.009-.557-.037-.237.011.343.051-.167-.048-.249-.072a1.321,1.321,0,0,0-.253-.085c.022,0,.345.178.172.066-.074-.047-.157-.082-.232-.128-.052-.031-.305-.207-.064-.03s-.1-.142-.163-.19c.243.195.232.308.134.145-.036-.06-.111-.238.016.057.162.377.007-.122-.024-.165.149.2.027.438.026.193,0-.081-.007-.161-.007-.241,0,.013.019-.247.013-.251.023.017-.1.516-.017.138.031-.137.06-.274.1-.409.028-.095.063-.186.092-.28.081-.256-.048-.052-.023.05-.026-.106.263-.5.315-.579.112-.181.235-.355.36-.527.042-.058.086-.115.128-.173.146-.2-.248.295-.006.013s.483-.568.745-.836a12.075,12.075,0,0,1,.889-.819l.169-.14c.289-.239-.194.136.009-.008s.377-.274.569-.406a2,2,0,0,0-2.019-3.454Z"/><path class="b" d="M140.73,209.106a25.893,25.893,0,0,0,20.151,7.626,2.049,2.049,0,0,0,2-2,2.016,2.016,0,0,0-2-2,22,22,0,0,1-17.323-6.455c-1.808-1.838-4.636.991-2.828,2.829Z"/><path class="h" d="M317.316,199.1c-12.261,3.617-26.32,7.76-36.966,10.852a12.383,12.383,0,0,0-8.887,10.96q-.32,4.21-.619,8.269c-13.468,4.151-29.578,9.08-38.294,11.667a25,25,0,0,1-7.654,4.046c-4.1,1.306-9.968,1.842-19.042-.618a71.959,71.959,0,0,1-12.915-5.794c-12.833-7.084-27.46-16.095-31.639-21.168,2.447-6.975,11.076-16.227,18.357-18.946,2.3,1,19.1,5.756,26.944,7.9.79-2.342,1.339-3.964,1.339-3.964,1.254-3.706,2.523-7.349,2.916-8.818,3.828-14.335,6.923-28.493,11.611-38.815,4.013-8.837,9.417-13.823,17.991-18.01q1.639-.8,3.26-1.536c.4-.954.662-1.573.662-1.573.85-2.025,2.377-6.033,3.905-7.331,2.842-2.415,10.811-6.893,17.422-8.711,7.256-1.995,17.222-3.9,20.375-3.994,2.841-.088,7.278,4.244,10.374,9.528,12.815,6.614,21.356,12.463,26.243,24.747a74.466,74.466,0,0,1,4.014,16.894c.674,4.59,1.135,17.535,1.151,31.308Z"/><path class="b" d="M288.883,122.249c-13.438,1.381-26.866,3.487-39.531,8.357-3.363,1.293-6.664,2.747-9.9,4.323-2.315,1.126-.289,4.577,2.018,3.454a121.969,121.969,0,0,1,35.06-10.59c4.1-.632,8.227-1.12,12.356-1.544a2.056,2.056,0,0,0,2-2,2.014,2.014,0,0,0-2-2Z"/><path class="b" d="M297.86,121.49c-2.309-3.727-5.632-8.339-10.037-9.716a9.961,9.961,0,0,0-4.32-.009c-2.088.276-4.163.634-6.231,1.031a105.547,105.547,0,0,0-14.3,3.465,60.791,60.791,0,0,0-12.906,6.232,14.207,14.207,0,0,0-4.556,3.987,39.684,39.684,0,0,0-3.058,6.535,2.013,2.013,0,0,0,1.4,2.461,2.053,2.053,0,0,0,2.461-1.4,41.923,41.923,0,0,1,2.313-5.022,7.994,7.994,0,0,1,2.941-2.773,56.864,56.864,0,0,1,11.161-5.694,86.168,86.168,0,0,1,12.758-3.364,67.451,67.451,0,0,1,10.268-1.7,2.236,2.236,0,0,1,1.37.245,9.235,9.235,0,0,1,2.315,1.608,27.6,27.6,0,0,1,4.971,6.13c1.353,2.184,4.815.177,3.454-2.019Z"/><path class="b" d="M232.119,158.126a23.913,23.913,0,0,1,6.8,2.522,18.543,18.543,0,0,1,4.984,4.2,21.79,21.79,0,0,1,5.009,10.84,2.018,2.018,0,0,0,2.46,1.4,2.044,2.044,0,0,0,1.4-2.461,25.693,25.693,0,0,0-6.037-12.6,24.4,24.4,0,0,0-13.547-7.75,2.049,2.049,0,0,0-2.46,1.4,2.02,2.02,0,0,0,1.4,2.46Z"/><path class="b" d="M300.068,127.233c7.677,4.285,14.735,9.449,18.96,17.358a52.455,52.455,0,0,1,4.935,15.508c.251,1.39.474,2.785.684,4.182.026.172.221,1.609.128.847.025.208.052.416.075.624.112.993.194,1.99.267,2.987,1.029,14.114.934,28.391.562,42.528-.106,4.031-.26,8.062-.517,12.086-.111,1.74-.242,3.479-.41,5.215-.072.741-.15,1.482-.239,2.222-.016.134-.128,1.011-.076.63q-.074.539-.157,1.076a2.064,2.064,0,0,0,1.4,2.461,2.016,2.016,0,0,0,2.46-1.4,162.559,162.559,0,0,0,1.456-19.4c.269-8.132.32-16.272.231-24.407-.161-14.868.076-30.9-6.136-44.725a38.462,38.462,0,0,0-8.616-12.149,63.954,63.954,0,0,0-12.985-9.1c-2.25-1.256-4.269,2.2-2.019,3.454Z"/><path class="d" d="M268.633,260.37c.907-13.048,1.775-25.571,2.83-39.459a12.383,12.383,0,0,1,8.887-10.96c15.44-4.485,38.058-11.178,51.961-15.274a6.064,6.064,0,0,1,7.757,6.225c-1.278,19.332-1.569,22.7-2.552,36.579Z"/><path class="b" d="M270.633,260.37c.869-12.5,1.739-24.993,2.681-37.484.188-2.5.483-4.728,1.894-6.864A10.225,10.225,0,0,1,280.2,212.1c2.236-.8,4.588-1.356,6.868-2.022q3.725-1.089,7.447-2.181,15.309-4.491,30.609-9.015l6.524-1.924c1.9-.56,3.653-.871,5.218.638,1.8,1.734,1.131,4.391.984,6.61q-.262,3.927-.529,7.854c-.578,8.475-1.2,16.947-1.8,25.421-.181,2.568,3.819,2.557,4,0,.561-7.92,1.147-15.838,1.69-23.758q.267-3.885.526-7.77c.191-2.849.841-5.974-.338-8.681a8.117,8.117,0,0,0-5.284-4.571c-2.512-.674-4.843.2-7.234.9q-15.777,4.651-31.554,9.3-7.836,2.3-15.678,4.589a18.766,18.766,0,0,0-7.04,3.31,14.436,14.436,0,0,0-4.308,6.138c-1.175,3.149-1.046,6.776-1.292,10.086q-.414,5.568-.812,11.138-.8,11.1-1.559,22.206c-.178,2.569,3.822,2.558,4,0Z"/><path class="b" d="M239.449,134.929a42.484,42.484,0,0,0-10.992,7.458A36.684,36.684,0,0,0,220.9,153.3c-4.589,9.886-7.071,20.682-9.772,31.192-.77,3-1.48,6.02-2.355,8.987-.823,2.791-1.831,5.533-2.764,8.289-.828,2.443,3.034,3.492,3.857,1.063,1.653-4.88,3.169-9.716,4.457-14.706,1.408-5.45,2.774-10.911,4.307-16.328,2.467-8.724,5.121-18.408,11.378-25.268a37.637,37.637,0,0,1,11.456-8.146c2.31-1.137.285-4.588-2.018-3.454Z"/><path class="b" d="M73.69,249.617c9.708-2.665,19.4-5.394,29.09-8.12q18.516-5.207,37-10.5c4.611-1.327,9.225-2.649,13.816-4.047,2.456-.748,1.409-4.61-1.064-3.857-9.642,2.936-19.357,5.646-29.053,8.4q-18.495,5.253-37.015,10.425-6.918,1.934-13.843,3.845c-2.479.68-1.427,4.54,1.064,3.857Z"/><path class="b" d="M210.887,205.33c-8.159-1.957-16.24-4.432-24.278-6.829-1.725-.515-3.454-1.028-5.161-1.6-.236-.08-.47-.162-.7-.245-.1-.034-.2-.078-.3-.109-.047-.015-.093-.039-.14-.056.552.2.244.05-.12-.05-1.474-.405-3.683,1.12-4.912,1.855A40.057,40.057,0,0,0,160.767,213.6c-.724,1.385-2.05,3.453-1.037,4.927a14.492,14.492,0,0,0,2.382,2.45,74.742,74.742,0,0,0,7.4,5.646c6.552,4.516,13.433,8.563,20.373,12.447a101.8,101.8,0,0,0,11.7,5.785,45,45,0,0,0,12.149,2.946,27.866,27.866,0,0,0,16.744-3.174,23.689,23.689,0,0,0,7.89-7.032,50.271,50.271,0,0,0,4.79-9.8,175.484,175.484,0,0,0,7.349-24c.517-2.064,1.024-4.13,1.535-6.195.618-2.5-3.238-3.565-3.857-1.064-2.281,9.225-4.437,18.573-7.81,27.475a62.2,62.2,0,0,1-4.926,10.754,19.742,19.742,0,0,1-8.294,7.093c-6.22,3.028-13.3,2.4-19.818.741a57.336,57.336,0,0,1-13.168-5.725q-6.083-3.337-12.027-6.92c-4.06-2.448-8.08-4.977-11.948-7.718a38.569,38.569,0,0,1-7.472-6.333l.515,1.946a30.162,30.162,0,0,1,6.851-10.187c2.844-2.972,6.221-5.869,10.108-7.363l-1.541-.2a97.091,97.091,0,0,0,11.115,3.5q7.665,2.225,15.362,4.336c1.563.429,3.124.877,4.7,1.255,2.5.6,3.569-3.256,1.063-3.857Z"/><path class="b" d="M178.393,198.449q8.916-2.4,17.83-4.813c2.481-.674,1.428-4.534-1.063-3.857q-8.912,2.421-17.83,4.813c-2.483.67-1.429,4.529,1.063,3.857Z"/></svg>