<svg width="472.8" height="72" viewBox="0 0 472.8 72" xmlns="http://www.w3.org/2000/svg"><g id="svgGroup" stroke-linecap="round" fill-rule="evenodd" font-size="9pt" stroke="#000" stroke-width="0.25mm" fill="#000"><path d="M 192.4 56 L 178.4 56 A 13.936 13.936 0 0 1 178.127 54.398 Q 178 53.294 178 52 A 23.85 23.85 0 0 1 178.054 50.345 Q 178.147 49.013 178.4 48 L 174.4 48 A 13.936 13.936 0 0 1 174.127 46.398 Q 174 45.294 174 44 A 23.85 23.85 0 0 1 174.054 42.345 Q 174.147 41.013 174.4 40 L 168.4 40 A 11.741 11.741 0 0 1 168.644 41.313 Q 168.737 42.018 168.774 42.833 A 25.306 25.306 0 0 1 168.8 44 Q 168.8 45.968 168.507 47.496 A 12.311 12.311 0 0 1 168.4 48 A 11.741 11.741 0 0 1 168.644 49.313 Q 168.737 50.018 168.774 50.833 A 25.306 25.306 0 0 1 168.8 52 Q 168.8 53.968 168.507 55.496 A 12.311 12.311 0 0 1 168.4 56 L 160.4 56 A 13.936 13.936 0 0 1 160.127 54.398 Q 160 53.294 160 52 A 23.85 23.85 0 0 1 160.054 50.345 Q 160.147 49.013 160.4 48 A 13.936 13.936 0 0 1 160.127 46.398 Q 160 45.294 160 44 A 23.85 23.85 0 0 1 160.054 42.345 Q 160.147 41.013 160.4 40 A 13.936 13.936 0 0 1 160.127 38.398 Q 160 37.294 160 36 A 23.85 23.85 0 0 1 160.054 34.345 Q 160.147 33.013 160.4 32 A 13.936 13.936 0 0 1 160.127 30.398 Q 160 29.294 160 28 A 23.85 23.85 0 0 1 160.054 26.345 Q 160.147 25.013 160.4 24 A 13.936 13.936 0 0 1 160.127 22.398 Q 160 21.294 160 20 A 23.85 23.85 0 0 1 160.054 18.345 Q 160.147 17.013 160.4 16 A 13.936 13.936 0 0 1 160.127 14.398 Q 160 13.294 160 12 A 23.85 23.85 0 0 1 160.054 10.345 Q 160.147 9.013 160.4 8 A 13.936 13.936 0 0 1 160.127 6.398 Q 160 5.294 160 4 A 23.85 23.85 0 0 1 160.054 2.345 Q 160.147 1.013 160.4 0 L 168.4 0 A 11.741 11.741 0 0 1 168.644 1.313 Q 168.737 2.018 168.774 2.833 A 25.306 25.306 0 0 1 168.8 4 Q 168.8 5.968 168.507 7.496 A 12.311 12.311 0 0 1 168.4 8 A 11.741 11.741 0 0 1 168.644 9.313 Q 168.737 10.018 168.774 10.833 A 25.306 25.306 0 0 1 168.8 12 Q 168.8 13.968 168.507 15.496 A 12.311 12.311 0 0 1 168.4 16 A 11.741 11.741 0 0 1 168.644 17.313 Q 168.737 18.018 168.774 18.833 A 25.306 25.306 0 0 1 168.8 20 Q 168.8 21.968 168.507 23.496 A 12.311 12.311 0 0 1 168.4 24 A 11.741 11.741 0 0 1 168.644 25.313 Q 168.737 26.018 168.774 26.833 A 25.306 25.306 0 0 1 168.8 28 Q 168.8 29.968 168.507 31.496 A 12.311 12.311 0 0 1 168.4 32 L 174.4 32 A 13.936 13.936 0 0 1 174.127 30.398 Q 174 29.294 174 28 A 23.85 23.85 0 0 1 174.054 26.345 Q 174.147 25.013 174.4 24 L 178.4 24 A 13.936 13.936 0 0 1 178.127 22.398 Q 178 21.294 178 20 A 23.85 23.85 0 0 1 178.054 18.345 Q 178.147 17.013 178.4 16 L 190.4 16 Q 190.698 17.194 190.774 18.833 A 25.306 25.306 0 0 1 190.8 20 Q 190.8 21.968 190.507 23.496 A 12.311 12.311 0 0 1 190.4 24 L 182.4 24 Q 182.698 25.194 182.774 26.833 A 25.306 25.306 0 0 1 182.8 28 Q 182.8 29.968 182.507 31.496 A 12.311 12.311 0 0 1 182.4 32 L 178.4 32 Q 178.698 33.194 178.774 34.833 A 25.306 25.306 0 0 1 178.8 36 Q 178.8 37.968 178.507 39.496 A 12.311 12.311 0 0 1 178.4 40 L 182.4 40 Q 182.698 41.194 182.774 42.833 A 25.306 25.306 0 0 1 182.8 44 Q 182.8 45.968 182.507 47.496 A 12.311 12.311 0 0 1 182.4 48 L 192.4 48 Q 192.698 49.194 192.774 50.833 A 25.306 25.306 0 0 1 192.8 52 Q 192.8 53.968 192.507 55.496 A 12.311 12.311 0 0 1 192.4 56 Z M 472.4 24 L 469.4 24 A 11.741 11.741 0 0 1 469.644 25.313 Q 469.737 26.018 469.774 26.833 A 25.306 25.306 0 0 1 469.8 28 Q 469.8 29.968 469.507 31.496 A 12.311 12.311 0 0 1 469.4 32 L 466.4 32 Q 466.698 33.194 466.774 34.833 A 25.306 25.306 0 0 1 466.8 36 Q 466.8 37.968 466.507 39.496 A 12.311 12.311 0 0 1 466.4 40 L 464.4 40 Q 464.698 41.194 464.774 42.833 A 25.306 25.306 0 0 1 464.8 44 Q 464.8 45.968 464.507 47.496 A 12.311 12.311 0 0 1 464.4 48 L 461.4 48 Q 461.698 49.194 461.774 50.833 A 25.306 25.306 0 0 1 461.8 52 Q 461.8 53.968 461.507 55.496 A 12.311 12.311 0 0 1 461.4 56 L 459.4 56 Q 459.698 57.194 459.774 58.833 A 25.306 25.306 0 0 1 459.8 60 Q 459.8 61.968 459.507 63.496 A 12.311 12.311 0 0 1 459.4 64 L 455.4 64 Q 455.698 65.194 455.774 66.833 A 25.306 25.306 0 0 1 455.8 68 Q 455.8 69.968 455.507 71.496 A 12.311 12.311 0 0 1 455.4 72 L 443.4 72 A 13.936 13.936 0 0 1 443.127 70.398 Q 443 69.294 443 68 A 23.85 23.85 0 0 1 443.054 66.345 Q 443.147 65.013 443.4 64 L 451.4 64 A 13.936 13.936 0 0 1 451.127 62.398 Q 451 61.294 451 60 A 23.85 23.85 0 0 1 451.054 58.345 Q 451.147 57.013 451.4 56 A 13.936 13.936 0 0 1 451.127 54.398 Q 451 53.294 451 52 A 23.85 23.85 0 0 1 451.054 50.345 Q 451.147 49.013 451.4 48 L 447.4 48 A 13.936 13.936 0 0 1 447.127 46.398 Q 447 45.294 447 44 A 23.85 23.85 0 0 1 447.054 42.345 Q 447.147 41.013 447.4 40 L 445.4 40 A 13.936 13.936 0 0 1 445.127 38.398 Q 445 37.294 445 36 A 23.85 23.85 0 0 1 445.054 34.345 Q 445.147 33.013 445.4 32 L 442.4 32 A 13.936 13.936 0 0 1 442.127 30.398 Q 442 29.294 442 28 A 23.85 23.85 0 0 1 442.054 26.345 Q 442.147 25.013 442.4 24 L 439.4 24 A 13.936 13.936 0 0 1 439.127 22.398 Q 439 21.294 439 20 A 23.85 23.85 0 0 1 439.054 18.345 Q 439.147 17.013 439.4 16 L 447.4 16 A 11.741 11.741 0 0 1 447.644 17.313 Q 447.737 18.018 447.774 18.833 A 25.306 25.306 0 0 1 447.8 20 Q 447.8 21.968 447.507 23.496 A 12.311 12.311 0 0 1 447.4 24 L 450.4 24 A 11.741 11.741 0 0 1 450.644 25.313 Q 450.737 26.018 450.774 26.833 A 25.306 25.306 0 0 1 450.8 28 Q 450.8 29.968 450.507 31.496 A 12.311 12.311 0 0 1 450.4 32 L 453.4 32 A 11.741 11.741 0 0 1 453.644 33.313 Q 453.737 34.018 453.774 34.833 A 25.306 25.306 0 0 1 453.8 36 Q 453.8 37.968 453.507 39.496 A 12.311 12.311 0 0 1 453.4 40 A 11.741 11.741 0 0 1 453.644 41.313 Q 453.737 42.018 453.774 42.833 A 25.306 25.306 0 0 1 453.8 44 Q 453.8 45.968 453.507 47.496 A 12.311 12.311 0 0 1 453.4 48 L 456.4 48 A 13.936 13.936 0 0 1 456.127 46.398 Q 456 45.294 456 44 A 23.85 23.85 0 0 1 456.054 42.345 Q 456.147 41.013 456.4 40 L 458.4 40 A 13.936 13.936 0 0 1 458.127 38.398 Q 458 37.294 458 36 A 23.85 23.85 0 0 1 458.054 34.345 Q 458.147 33.013 458.4 32 L 461.4 32 A 13.936 13.936 0 0 1 461.127 30.398 Q 461 29.294 461 28 A 23.85 23.85 0 0 1 461.054 26.345 Q 461.147 25.013 461.4 24 L 464.4 24 A 13.936 13.936 0 0 1 464.127 22.398 Q 464 21.294 464 20 A 23.85 23.85 0 0 1 464.054 18.345 Q 464.147 17.013 464.4 16 L 472.4 16 Q 472.698 17.194 472.774 18.833 A 25.306 25.306 0 0 1 472.8 20 Q 472.8 21.968 472.507 23.496 A 12.311 12.311 0 0 1 472.4 24 Z M 224.4 40 L 232.4 40 Q 232.698 41.194 232.774 42.833 A 25.306 25.306 0 0 1 232.8 44 Q 232.8 45.968 232.507 47.496 A 12.311 12.311 0 0 1 232.4 48 L 228.4 48 A 11.741 11.741 0 0 1 228.644 49.313 Q 228.737 50.018 228.774 50.833 A 25.306 25.306 0 0 1 228.8 52 Q 228.8 53.968 228.507 55.496 A 12.311 12.311 0 0 1 228.4 56 L 208.4 56 A 13.936 13.936 0 0 1 208.127 54.398 Q 208 53.294 208 52 A 23.85 23.85 0 0 1 208.054 50.345 Q 208.147 49.013 208.4 48 L 204.4 48 A 13.936 13.936 0 0 1 204.127 46.398 Q 204 45.294 204 44 A 23.85 23.85 0 0 1 204.054 42.345 Q 204.147 41.013 204.4 40 L 200.4 40 A 13.936 13.936 0 0 1 200.127 38.398 Q 200 37.294 200 36 A 23.85 23.85 0 0 1 200.054 34.345 Q 200.147 33.013 200.4 32 A 13.936 13.936 0 0 1 200.127 30.398 Q 200 29.294 200 28 A 23.85 23.85 0 0 1 200.054 26.345 Q 200.147 25.013 200.4 24 A 13.936 13.936 0 0 1 200.127 22.398 Q 200 21.294 200 20 A 23.85 23.85 0 0 1 200.054 18.345 Q 200.147 17.013 200.4 16 L 204.4 16 A 13.936 13.936 0 0 1 204.127 14.398 Q 204 13.294 204 12 A 23.85 23.85 0 0 1 204.054 10.345 Q 204.147 9.013 204.4 8 L 208.4 8 A 13.936 13.936 0 0 1 208.127 6.398 Q 208 5.294 208 4 A 23.85 23.85 0 0 1 208.054 2.345 Q 208.147 1.013 208.4 0 L 228.4 0 A 11.741 11.741 0 0 1 228.644 1.313 Q 228.737 2.018 228.774 2.833 A 25.306 25.306 0 0 1 228.8 4 Q 228.8 5.968 228.507 7.496 A 12.311 12.311 0 0 1 228.4 8 L 232.4 8 Q 232.698 9.194 232.774 10.833 A 25.306 25.306 0 0 1 232.8 12 Q 232.8 13.968 232.507 15.496 A 12.311 12.311 0 0 1 232.4 16 L 224.4 16 A 13.936 13.936 0 0 1 224.127 14.398 Q 224 13.294 224 12 A 23.85 23.85 0 0 1 224.054 10.345 Q 224.147 9.013 224.4 8 L 212.4 8 Q 212.698 9.194 212.774 10.833 A 25.306 25.306 0 0 1 212.8 12 Q 212.8 13.968 212.507 15.496 A 12.311 12.311 0 0 1 212.4 16 L 208.4 16 A 11.741 11.741 0 0 1 208.644 17.313 Q 208.737 18.018 208.774 18.833 A 25.306 25.306 0 0 1 208.8 20 Q 208.8 21.968 208.507 23.496 A 12.311 12.311 0 0 1 208.4 24 A 11.741 11.741 0 0 1 208.644 25.313 Q 208.737 26.018 208.774 26.833 A 25.306 25.306 0 0 1 208.8 28 Q 208.8 29.968 208.507 31.496 A 12.311 12.311 0 0 1 208.4 32 A 11.741 11.741 0 0 1 208.644 33.313 Q 208.737 34.018 208.774 34.833 A 25.306 25.306 0 0 1 208.8 36 Q 208.8 37.968 208.507 39.496 A 12.311 12.311 0 0 1 208.4 40 L 212.4 40 Q 212.698 41.194 212.774 42.833 A 25.306 25.306 0 0 1 212.8 44 Q 212.8 45.968 212.507 47.496 A 12.311 12.311 0 0 1 212.4 48 L 224.4 48 A 13.936 13.936 0 0 1 224.127 46.398 Q 224 45.294 224 44 A 23.85 23.85 0 0 1 224.054 42.345 Q 224.147 41.013 224.4 40 Z M 144.4 40 L 152.4 40 Q 152.698 41.194 152.774 42.833 A 25.306 25.306 0 0 1 152.8 44 Q 152.8 45.968 152.507 47.496 A 12.311 12.311 0 0 1 152.4 48 L 148.4 48 A 11.741 11.741 0 0 1 148.644 49.313 Q 148.737 50.018 148.774 50.833 A 25.306 25.306 0 0 1 148.8 52 Q 148.8 53.968 148.507 55.496 A 12.311 12.311 0 0 1 148.4 56 L 128.4 56 A 13.936 13.936 0 0 1 128.127 54.398 Q 128 53.294 128 52 A 23.85 23.85 0 0 1 128.054 50.345 Q 128.147 49.013 128.4 48 L 124.4 48 A 13.936 13.936 0 0 1 124.127 46.398 Q 124 45.294 124 44 A 23.85 23.85 0 0 1 124.054 42.345 Q 124.147 41.013 124.4 40 L 120.4 40 A 13.936 13.936 0 0 1 120.127 38.398 Q 120 37.294 120 36 A 23.85 23.85 0 0 1 120.054 34.345 Q 120.147 33.013 120.4 32 L 124.4 32 A 13.936 13.936 0 0 1 124.127 30.398 Q 124 29.294 124 28 A 23.85 23.85 0 0 1 124.054 26.345 Q 124.147 25.013 124.4 24 L 128.4 24 A 13.936 13.936 0 0 1 128.127 22.398 Q 128 21.294 128 20 A 23.85 23.85 0 0 1 128.054 18.345 Q 128.147 17.013 128.4 16 L 148.4 16 A 11.741 11.741 0 0 1 148.644 17.313 Q 148.737 18.018 148.774 18.833 A 25.306 25.306 0 0 1 148.8 20 Q 148.8 21.968 148.507 23.496 A 12.311 12.311 0 0 1 148.4 24 L 152.4 24 Q 152.698 25.194 152.774 26.833 A 25.306 25.306 0 0 1 152.8 28 Q 152.8 29.968 152.507 31.496 A 12.311 12.311 0 0 1 152.4 32 L 144.4 32 A 13.936 13.936 0 0 1 144.127 30.398 Q 144 29.294 144 28 A 23.85 23.85 0 0 1 144.054 26.345 Q 144.147 25.013 144.4 24 L 132.4 24 Q 132.698 25.194 132.774 26.833 A 25.306 25.306 0 0 1 132.8 28 Q 132.8 29.968 132.507 31.496 A 12.311 12.311 0 0 1 132.4 32 L 128.4 32 A 11.741 11.741 0 0 1 128.644 33.313 Q 128.737 34.018 128.774 34.833 A 25.306 25.306 0 0 1 128.8 36 Q 128.8 37.968 128.507 39.496 A 12.311 12.311 0 0 1 128.4 40 L 132.4 40 Q 132.698 41.194 132.774 42.833 A 25.306 25.306 0 0 1 132.8 44 Q 132.8 45.968 132.507 47.496 A 12.311 12.311 0 0 1 132.4 48 L 144.4 48 A 13.936 13.936 0 0 1 144.127 46.398 Q 144 45.294 144 44 A 23.85 23.85 0 0 1 144.054 42.345 Q 144.147 41.013 144.4 40 Z M 416.4 16 L 428.4 16 A 11.741 11.741 0 0 1 428.644 17.313 Q 428.737 18.018 428.774 18.833 A 25.306 25.306 0 0 1 428.8 20 Q 428.8 21.968 428.507 23.496 A 12.311 12.311 0 0 1 428.4 24 L 416.4 24 Q 416.698 25.194 416.774 26.833 A 25.306 25.306 0 0 1 416.8 28 Q 416.8 29.968 416.507 31.496 A 12.311 12.311 0 0 1 416.4 32 Q 416.698 33.194 416.774 34.833 A 25.306 25.306 0 0 1 416.8 36 Q 416.8 37.968 416.507 39.496 A 12.311 12.311 0 0 1 416.4 40 Q 416.698 41.194 416.774 42.833 A 25.306 25.306 0 0 1 416.8 44 Q 416.8 45.968 416.507 47.496 A 12.311 12.311 0 0 1 416.4 48 L 424.4 48 Q 424.698 49.194 424.774 50.833 A 25.306 25.306 0 0 1 424.8 52 Q 424.8 53.968 424.507 55.496 A 12.311 12.311 0 0 1 424.4 56 L 404.4 56 A 13.936 13.936 0 0 1 404.127 54.398 Q 404 53.294 404 52 A 23.85 23.85 0 0 1 404.054 50.345 Q 404.147 49.013 404.4 48 L 408.4 48 A 13.936 13.936 0 0 1 408.127 46.398 Q 408 45.294 408 44 A 23.85 23.85 0 0 1 408.054 42.345 Q 408.147 41.013 408.4 40 A 13.936 13.936 0 0 1 408.127 38.398 Q 408 37.294 408 36 A 23.85 23.85 0 0 1 408.054 34.345 Q 408.147 33.013 408.4 32 A 13.936 13.936 0 0 1 408.127 30.398 Q 408 29.294 408 28 A 23.85 23.85 0 0 1 408.054 26.345 Q 408.147 25.013 408.4 24 L 404.4 24 A 13.936 13.936 0 0 1 404.127 22.398 Q 404 21.294 404 20 A 23.85 23.85 0 0 1 404.054 18.345 Q 404.147 17.013 404.4 16 L 408.4 16 A 13.936 13.936 0 0 1 408.127 14.398 Q 408 13.294 408 12 A 23.85 23.85 0 0 1 408.054 10.345 Q 408.147 9.013 408.4 8 L 412.4 8 A 13.936 13.936 0 0 1 412.127 6.398 Q 412 5.294 412 4 A 23.85 23.85 0 0 1 412.054 2.345 Q 412.147 1.013 412.4 0 L 428.4 0 A 11.741 11.741 0 0 1 428.644 1.313 Q 428.737 2.018 428.774 2.833 A 25.306 25.306 0 0 1 428.8 4 Q 428.8 5.968 428.507 7.496 A 12.311 12.311 0 0 1 428.4 8 L 416.4 8 Q 416.698 9.194 416.774 10.833 A 25.306 25.306 0 0 1 416.8 12 Q 416.8 13.968 416.507 15.496 A 12.311 12.311 0 0 1 416.4 16 Z M 312.4 32 L 304.4 32 A 13.936 13.936 0 0 1 304.127 30.398 Q 304 29.294 304 28 A 23.85 23.85 0 0 1 304.054 26.345 Q 304.147 25.013 304.4 24 L 297.4 24 Q 297.698 25.194 297.774 26.833 A 25.306 25.306 0 0 1 297.8 28 Q 297.8 29.968 297.507 31.496 A 12.311 12.311 0 0 1 297.4 32 L 294.4 32 A 11.741 11.741 0 0 1 294.644 33.313 Q 294.737 34.018 294.774 34.833 A 25.306 25.306 0 0 1 294.8 36 Q 294.8 37.968 294.507 39.496 A 12.311 12.311 0 0 1 294.4 40 A 11.741 11.741 0 0 1 294.644 41.313 Q 294.737 42.018 294.774 42.833 A 25.306 25.306 0 0 1 294.8 44 Q 294.8 45.968 294.507 47.496 A 12.311 12.311 0 0 1 294.4 48 L 300.4 48 Q 300.698 49.194 300.774 50.833 A 25.306 25.306 0 0 1 300.8 52 Q 300.8 53.968 300.507 55.496 A 12.311 12.311 0 0 1 300.4 56 L 280.4 56 A 13.936 13.936 0 0 1 280.127 54.398 Q 280 53.294 280 52 A 23.85 23.85 0 0 1 280.054 50.345 Q 280.147 49.013 280.4 48 L 286.4 48 A 13.936 13.936 0 0 1 286.127 46.398 Q 286 45.294 286 44 A 23.85 23.85 0 0 1 286.054 42.345 Q 286.147 41.013 286.4 40 A 13.936 13.936 0 0 1 286.127 38.398 Q 286 37.294 286 36 A 23.85 23.85 0 0 1 286.054 34.345 Q 286.147 33.013 286.4 32 A 13.936 13.936 0 0 1 286.127 30.398 Q 286 29.294 286 28 A 23.85 23.85 0 0 1 286.054 26.345 Q 286.147 25.013 286.4 24 L 280.4 24 A 13.936 13.936 0 0 1 280.127 22.398 Q 280 21.294 280 20 A 23.85 23.85 0 0 1 280.054 18.345 Q 280.147 17.013 280.4 16 L 290.4 16 A 11.741 11.741 0 0 1 290.644 17.313 Q 290.737 18.018 290.774 18.833 A 25.306 25.306 0 0 1 290.8 20 Q 290.8 21.968 290.507 23.496 A 12.311 12.311 0 0 1 290.4 24 L 294.4 24 A 13.936 13.936 0 0 1 294.127 22.398 Q 294 21.294 294 20 A 23.85 23.85 0 0 1 294.054 18.345 Q 294.147 17.013 294.4 16 L 309.4 16 A 11.741 11.741 0 0 1 309.644 17.313 Q 309.737 18.018 309.774 18.833 A 25.306 25.306 0 0 1 309.8 20 Q 309.8 21.968 309.507 23.496 A 12.311 12.311 0 0 1 309.4 24 L 312.4 24 Q 312.698 25.194 312.774 26.833 A 25.306 25.306 0 0 1 312.8 28 Q 312.8 29.968 312.507 31.496 A 12.311 12.311 0 0 1 312.4 32 Z M 336.4 48 L 348.4 48 A 11.741 11.741 0 0 1 348.644 49.313 Q 348.737 50.018 348.774 50.833 A 25.306 25.306 0 0 1 348.8 52 Q 348.8 53.968 348.507 55.496 A 12.311 12.311 0 0 1 348.4 56 L 332.4 56 A 13.936 13.936 0 0 1 332.127 54.398 Q 332 53.294 332 52 A 23.85 23.85 0 0 1 332.054 50.345 Q 332.147 49.013 332.4 48 L 328.4 48 A 13.936 13.936 0 0 1 328.127 46.398 Q 328 45.294 328 44 A 23.85 23.85 0 0 1 328.054 42.345 Q 328.147 41.013 328.4 40 A 13.936 13.936 0 0 1 328.127 38.398 Q 328 37.294 328 36 A 23.85 23.85 0 0 1 328.054 34.345 Q 328.147 33.013 328.4 32 A 13.936 13.936 0 0 1 328.127 30.398 Q 328 29.294 328 28 A 23.85 23.85 0 0 1 328.054 26.345 Q 328.147 25.013 328.4 24 L 320.4 24 A 13.936 13.936 0 0 1 320.127 22.398 Q 320 21.294 320 20 A 23.85 23.85 0 0 1 320.054 18.345 Q 320.147 17.013 320.4 16 L 328.4 16 A 13.936 13.936 0 0 1 328.127 14.398 Q 328 13.294 328 12 A 23.85 23.85 0 0 1 328.054 10.345 Q 328.147 9.013 328.4 8 A 13.936 13.936 0 0 1 328.127 6.398 Q 328 5.294 328 4 A 23.85 23.85 0 0 1 328.054 2.345 Q 328.147 1.013 328.4 0 L 336.4 0 Q 336.698 1.194 336.774 2.833 A 25.306 25.306 0 0 1 336.8 4 Q 336.8 5.968 336.507 7.496 A 12.311 12.311 0 0 1 336.4 8 Q 336.698 9.194 336.774 10.833 A 25.306 25.306 0 0 1 336.8 12 Q 336.8 13.968 336.507 15.496 A 12.311 12.311 0 0 1 336.4 16 L 348.4 16 A 11.741 11.741 0 0 1 348.644 17.313 Q 348.737 18.018 348.774 18.833 A 25.306 25.306 0 0 1 348.8 20 Q 348.8 21.968 348.507 23.496 A 12.311 12.311 0 0 1 348.4 24 L 336.4 24 Q 336.698 25.194 336.774 26.833 A 25.306 25.306 0 0 1 336.8 28 Q 336.8 29.968 336.507 31.496 A 12.311 12.311 0 0 1 336.4 32 Q 336.698 33.194 336.774 34.833 A 25.306 25.306 0 0 1 336.8 36 Q 336.8 37.968 336.507 39.496 A 12.311 12.311 0 0 1 336.4 40 Q 336.698 41.194 336.774 42.833 A 25.306 25.306 0 0 1 336.8 44 Q 336.8 45.968 336.507 47.496 A 12.311 12.311 0 0 1 336.4 48 Z M 32.4 24 L 28.4 24 A 11.741 11.741 0 0 1 28.644 25.313 Q 28.737 26.018 28.774 26.833 A 25.306 25.306 0 0 1 28.8 28 Q 28.8 29.968 28.507 31.496 A 12.311 12.311 0 0 1 28.4 32 L 32.4 32 Q 32.698 33.194 32.774 34.833 A 25.306 25.306 0 0 1 32.8 36 Q 32.8 37.968 32.507 39.496 A 12.311 12.311 0 0 1 32.4 40 Q 32.698 41.194 32.774 42.833 A 25.306 25.306 0 0 1 32.8 44 Q 32.8 45.968 32.507 47.496 A 12.311 12.311 0 0 1 32.4 48 L 28.4 48 A 11.741 11.741 0 0 1 28.644 49.313 Q 28.737 50.018 28.774 50.833 A 25.306 25.306 0 0 1 28.8 52 Q 28.8 53.968 28.507 55.496 A 12.311 12.311 0 0 1 28.4 56 L 0.4 56 A 13.936 13.936 0 0 1 0.127 54.398 Q 0 53.294 0 52 A 23.85 23.85 0 0 1 0.054 50.345 Q 0.147 49.013 0.4 48 A 13.936 13.936 0 0 1 0.127 46.398 Q 0 45.294 0 44 A 23.85 23.85 0 0 1 0.054 42.345 Q 0.147 41.013 0.4 40 A 13.936 13.936 0 0 1 0.127 38.398 Q 0 37.294 0 36 A 23.85 23.85 0 0 1 0.054 34.345 Q 0.147 33.013 0.4 32 A 13.936 13.936 0 0 1 0.127 30.398 Q 0 29.294 0 28 A 23.85 23.85 0 0 1 0.054 26.345 Q 0.147 25.013 0.4 24 A 13.936 13.936 0 0 1 0.127 22.398 Q 0 21.294 0 20 A 23.85 23.85 0 0 1 0.054 18.345 Q 0.147 17.013 0.4 16 A 13.936 13.936 0 0 1 0.127 14.398 Q 0 13.294 0 12 A 23.85 23.85 0 0 1 0.054 10.345 Q 0.147 9.013 0.4 8 A 13.936 13.936 0 0 1 0.127 6.398 Q 0 5.294 0 4 A 23.85 23.85 0 0 1 0.054 2.345 Q 0.147 1.013 0.4 0 L 28.4 0 A 11.741 11.741 0 0 1 28.644 1.313 Q 28.737 2.018 28.774 2.833 A 25.306 25.306 0 0 1 28.8 4 Q 28.8 5.968 28.507 7.496 A 12.311 12.311 0 0 1 28.4 8 L 32.4 8 Q 32.698 9.194 32.774 10.833 A 25.306 25.306 0 0 1 32.8 12 Q 32.8 13.968 32.507 15.496 A 12.311 12.311 0 0 1 32.4 16 Q 32.698 17.194 32.774 18.833 A 25.306 25.306 0 0 1 32.8 20 Q 32.8 21.968 32.507 23.496 A 12.311 12.311 0 0 1 32.4 24 Z M 272.4 40 L 251.4 40 A 11.741 11.741 0 0 1 251.644 41.313 Q 251.737 42.018 251.774 42.833 A 25.306 25.306 0 0 1 251.8 44 Q 251.8 45.968 251.507 47.496 A 12.311 12.311 0 0 1 251.4 48 L 268.4 48 A 11.741 11.741 0 0 1 268.644 49.313 Q 268.737 50.018 268.774 50.833 A 25.306 25.306 0 0 1 268.8 52 Q 268.8 53.968 268.507 55.496 A 12.311 12.311 0 0 1 268.4 56 L 248.4 56 A 13.936 13.936 0 0 1 248.127 54.398 Q 248 53.294 248 52 A 23.85 23.85 0 0 1 248.054 50.345 Q 248.147 49.013 248.4 48 L 243.4 48 A 13.936 13.936 0 0 1 243.127 46.398 Q 243 45.294 243 44 A 23.85 23.85 0 0 1 243.054 42.345 Q 243.147 41.013 243.4 40 L 240.4 40 A 13.936 13.936 0 0 1 240.127 38.398 Q 240 37.294 240 36 A 23.85 23.85 0 0 1 240.054 34.345 Q 240.147 33.013 240.4 32 L 243.4 32 A 13.936 13.936 0 0 1 243.127 30.398 Q 243 29.294 243 28 A 23.85 23.85 0 0 1 243.054 26.345 Q 243.147 25.013 243.4 24 L 248.4 24 A 13.936 13.936 0 0 1 248.127 22.398 Q 248 21.294 248 20 A 23.85 23.85 0 0 1 248.054 18.345 Q 248.147 17.013 248.4 16 L 268.4 16 A 11.741 11.741 0 0 1 268.644 17.313 Q 268.737 18.018 268.774 18.833 A 25.306 25.306 0 0 1 268.8 20 Q 268.8 21.968 268.507 23.496 A 12.311 12.311 0 0 1 268.4 24 L 272.4 24 Q 272.698 25.194 272.774 26.833 A 25.306 25.306 0 0 1 272.8 28 Q 272.8 29.968 272.507 31.496 A 12.311 12.311 0 0 1 272.4 32 Q 272.698 33.194 272.774 34.833 A 25.306 25.306 0 0 1 272.8 36 Q 272.8 37.968 272.507 39.496 A 12.311 12.311 0 0 1 272.4 40 Z M 68.4 56 L 44.4 56 A 13.936 13.936 0 0 1 44.127 54.398 Q 44 53.294 44 52 A 23.85 23.85 0 0 1 44.054 50.345 Q 44.147 49.013 44.4 48 L 52.4 48 A 13.936 13.936 0 0 1 52.127 46.398 Q 52 45.294 52 44 A 23.85 23.85 0 0 1 52.054 42.345 Q 52.147 41.013 52.4 40 A 13.936 13.936 0 0 1 52.127 38.398 Q 52 37.294 52 36 A 23.85 23.85 0 0 1 52.054 34.345 Q 52.147 33.013 52.4 32 A 13.936 13.936 0 0 1 52.127 30.398 Q 52 29.294 52 28 A 23.85 23.85 0 0 1 52.054 26.345 Q 52.147 25.013 52.4 24 A 13.936 13.936 0 0 1 52.127 22.398 Q 52 21.294 52 20 A 23.85 23.85 0 0 1 52.054 18.345 Q 52.147 17.013 52.4 16 A 13.936 13.936 0 0 1 52.127 14.398 Q 52 13.294 52 12 A 23.85 23.85 0 0 1 52.054 10.345 Q 52.147 9.013 52.4 8 L 46.4 8 A 13.936 13.936 0 0 1 46.127 6.398 Q 46 5.294 46 4 A 23.85 23.85 0 0 1 46.054 2.345 Q 46.147 1.013 46.4 0 L 60.4 0 Q 60.698 1.194 60.774 2.833 A 25.306 25.306 0 0 1 60.8 4 Q 60.8 5.968 60.507 7.496 A 12.311 12.311 0 0 1 60.4 8 Q 60.698 9.194 60.774 10.833 A 25.306 25.306 0 0 1 60.8 12 Q 60.8 13.968 60.507 15.496 A 12.311 12.311 0 0 1 60.4 16 Q 60.698 17.194 60.774 18.833 A 25.306 25.306 0 0 1 60.8 20 Q 60.8 21.968 60.507 23.496 A 12.311 12.311 0 0 1 60.4 24 Q 60.698 25.194 60.774 26.833 A 25.306 25.306 0 0 1 60.8 28 Q 60.8 29.968 60.507 31.496 A 12.311 12.311 0 0 1 60.4 32 Q 60.698 33.194 60.774 34.833 A 25.306 25.306 0 0 1 60.8 36 Q 60.8 37.968 60.507 39.496 A 12.311 12.311 0 0 1 60.4 40 Q 60.698 41.194 60.774 42.833 A 25.306 25.306 0 0 1 60.8 44 Q 60.8 45.968 60.507 47.496 A 12.311 12.311 0 0 1 60.4 48 L 68.4 48 A 11.741 11.741 0 0 1 68.644 49.313 Q 68.737 50.018 68.774 50.833 A 25.306 25.306 0 0 1 68.8 52 Q 68.8 53.968 68.507 55.496 A 12.311 12.311 0 0 1 68.4 56 Z M 112.4 40 L 109.4 40 A 11.741 11.741 0 0 1 109.644 41.313 Q 109.737 42.018 109.774 42.833 A 25.306 25.306 0 0 1 109.8 44 Q 109.8 45.968 109.507 47.496 A 12.311 12.311 0 0 1 109.4 48 L 104.4 48 Q 104.698 49.194 104.774 50.833 A 25.306 25.306 0 0 1 104.8 52 Q 104.8 53.968 104.507 55.496 A 12.311 12.311 0 0 1 104.4 56 L 88.4 56 A 13.936 13.936 0 0 1 88.127 54.398 Q 88 53.294 88 52 A 23.85 23.85 0 0 1 88.054 50.345 Q 88.147 49.013 88.4 48 L 83.4 48 A 13.936 13.936 0 0 1 83.127 46.398 Q 83 45.294 83 44 A 23.85 23.85 0 0 1 83.054 42.345 Q 83.147 41.013 83.4 40 L 80.4 40 A 13.936 13.936 0 0 1 80.127 38.398 Q 80 37.294 80 36 A 23.85 23.85 0 0 1 80.054 34.345 Q 80.147 33.013 80.4 32 L 83.4 32 A 13.936 13.936 0 0 1 83.127 30.398 Q 83 29.294 83 28 A 23.85 23.85 0 0 1 83.054 26.345 Q 83.147 25.013 83.4 24 L 88.4 24 A 13.936 13.936 0 0 1 88.127 22.398 Q 88 21.294 88 20 A 23.85 23.85 0 0 1 88.054 18.345 Q 88.147 17.013 88.4 16 L 104.4 16 Q 104.698 17.194 104.774 18.833 A 25.306 25.306 0 0 1 104.8 20 Q 104.8 21.968 104.507 23.496 A 12.311 12.311 0 0 1 104.4 24 L 109.4 24 A 11.741 11.741 0 0 1 109.644 25.313 Q 109.737 26.018 109.774 26.833 A 25.306 25.306 0 0 1 109.8 28 Q 109.8 29.968 109.507 31.496 A 12.311 12.311 0 0 1 109.4 32 L 112.4 32 Q 112.698 33.194 112.774 34.833 A 25.306 25.306 0 0 1 112.8 36 Q 112.8 37.968 112.507 39.496 A 12.311 12.311 0 0 1 112.4 40 Z M 388.4 56 L 364.4 56 A 13.936 13.936 0 0 1 364.127 54.398 Q 364 53.294 364 52 A 23.85 23.85 0 0 1 364.054 50.345 Q 364.147 49.013 364.4 48 L 372.4 48 A 13.936 13.936 0 0 1 372.127 46.398 Q 372 45.294 372 44 A 23.85 23.85 0 0 1 372.054 42.345 Q 372.147 41.013 372.4 40 A 13.936 13.936 0 0 1 372.127 38.398 Q 372 37.294 372 36 A 23.85 23.85 0 0 1 372.054 34.345 Q 372.147 33.013 372.4 32 A 13.936 13.936 0 0 1 372.127 30.398 Q 372 29.294 372 28 A 23.85 23.85 0 0 1 372.054 26.345 Q 372.147 25.013 372.4 24 L 366.4 24 A 13.936 13.936 0 0 1 366.127 22.398 Q 366 21.294 366 20 A 23.85 23.85 0 0 1 366.054 18.345 Q 366.147 17.013 366.4 16 L 380.4 16 Q 380.698 17.194 380.774 18.833 A 25.306 25.306 0 0 1 380.8 20 Q 380.8 21.968 380.507 23.496 A 12.311 12.311 0 0 1 380.4 24 Q 380.698 25.194 380.774 26.833 A 25.306 25.306 0 0 1 380.8 28 Q 380.8 29.968 380.507 31.496 A 12.311 12.311 0 0 1 380.4 32 Q 380.698 33.194 380.774 34.833 A 25.306 25.306 0 0 1 380.8 36 Q 380.8 37.968 380.507 39.496 A 12.311 12.311 0 0 1 380.4 40 Q 380.698 41.194 380.774 42.833 A 25.306 25.306 0 0 1 380.8 44 Q 380.8 45.968 380.507 47.496 A 12.311 12.311 0 0 1 380.4 48 L 388.4 48 A 11.741 11.741 0 0 1 388.644 49.313 Q 388.737 50.018 388.774 50.833 A 25.306 25.306 0 0 1 388.8 52 Q 388.8 53.968 388.507 55.496 A 12.311 12.311 0 0 1 388.4 56 Z M 101.4 40 L 104.4 40 A 13.936 13.936 0 0 1 104.127 38.398 Q 104 37.294 104 36 A 23.85 23.85 0 0 1 104.054 34.345 Q 104.147 33.013 104.4 32 L 101.4 32 A 13.936 13.936 0 0 1 101.127 30.398 Q 101 29.294 101 28 A 23.85 23.85 0 0 1 101.054 26.345 Q 101.147 25.013 101.4 24 L 91.4 24 A 11.741 11.741 0 0 1 91.644 25.313 Q 91.737 26.018 91.774 26.833 A 25.306 25.306 0 0 1 91.8 28 Q 91.8 29.968 91.507 31.496 A 12.311 12.311 0 0 1 91.4 32 L 88.4 32 A 11.741 11.741 0 0 1 88.644 33.313 Q 88.737 34.018 88.774 34.833 A 25.306 25.306 0 0 1 88.8 36 Q 88.8 37.968 88.507 39.496 A 12.311 12.311 0 0 1 88.4 40 L 91.4 40 A 11.741 11.741 0 0 1 91.644 41.313 Q 91.737 42.018 91.774 42.833 A 25.306 25.306 0 0 1 91.8 44 Q 91.8 45.968 91.507 47.496 A 12.311 12.311 0 0 1 91.4 48 L 101.4 48 A 13.936 13.936 0 0 1 101.127 46.398 Q 101 45.294 101 44 A 23.85 23.85 0 0 1 101.054 42.345 Q 101.147 41.013 101.4 40 Z M 24.4 32 L 8.4 32 A 11.741 11.741 0 0 1 8.644 33.313 Q 8.737 34.018 8.774 34.833 A 25.306 25.306 0 0 1 8.8 36 Q 8.8 37.968 8.507 39.496 A 12.311 12.311 0 0 1 8.4 40 A 11.741 11.741 0 0 1 8.644 41.313 Q 8.737 42.018 8.774 42.833 A 25.306 25.306 0 0 1 8.8 44 Q 8.8 45.968 8.507 47.496 A 12.311 12.311 0 0 1 8.4 48 L 24.4 48 A 13.936 13.936 0 0 1 24.127 46.398 Q 24 45.294 24 44 A 23.85 23.85 0 0 1 24.054 42.345 Q 24.147 41.013 24.4 40 A 13.936 13.936 0 0 1 24.127 38.398 Q 24 37.294 24 36 A 23.85 23.85 0 0 1 24.054 34.345 Q 24.147 33.013 24.4 32 Z M 24.4 8 L 8.4 8 A 11.741 11.741 0 0 1 8.644 9.313 Q 8.737 10.018 8.774 10.833 A 25.306 25.306 0 0 1 8.8 12 Q 8.8 13.968 8.507 15.496 A 12.311 12.311 0 0 1 8.4 16 A 11.741 11.741 0 0 1 8.644 17.313 Q 8.737 18.018 8.774 18.833 A 25.306 25.306 0 0 1 8.8 20 Q 8.8 21.968 8.507 23.496 A 12.311 12.311 0 0 1 8.4 24 L 24.4 24 A 13.936 13.936 0 0 1 24.127 22.398 Q 24 21.294 24 20 A 23.85 23.85 0 0 1 24.054 18.345 Q 24.147 17.013 24.4 16 A 13.936 13.936 0 0 1 24.127 14.398 Q 24 13.294 24 12 A 23.85 23.85 0 0 1 24.054 10.345 Q 24.147 9.013 24.4 8 Z M 264.4 24 L 251.4 24 A 11.741 11.741 0 0 1 251.644 25.313 Q 251.737 26.018 251.774 26.833 A 25.306 25.306 0 0 1 251.8 28 Q 251.8 29.968 251.507 31.496 A 12.311 12.311 0 0 1 251.4 32 L 264.4 32 A 13.936 13.936 0 0 1 264.127 30.398 Q 264 29.294 264 28 A 23.85 23.85 0 0 1 264.054 26.345 Q 264.147 25.013 264.4 24 Z M 380.4 8 L 372.4 8 A 13.936 13.936 0 0 1 372.127 6.398 Q 372 5.294 372 4 A 23.85 23.85 0 0 1 372.054 2.345 Q 372.147 1.013 372.4 0 L 380.4 0 Q 380.698 1.194 380.774 2.833 A 25.306 25.306 0 0 1 380.8 4 Q 380.8 5.968 380.507 7.496 A 12.311 12.311 0 0 1 380.4 8 Z" vector-effect="non-scaling-stroke"/></g></svg>